<svg xmlns="http://www.w3.org/2000/svg" width="240" height="240" fill="none" viewBox="0 0 240 240"><g clip-path="url(#a)"><g filter="url(#b)" opacity=".2"><ellipse cx="120" cy="215.2" fill="#A9BAD9" rx="60" ry="4"/></g><g filter="url(#c)"><path fill="url(#d)" fill-opacity=".5" d="M79 46.545A6.545 6.545 0 0 1 85.546 40h68.909A6.546 6.546 0 0 1 161 46.545V71c0 22.644-18.356 41-41 41S79 93.644 79 71z"/></g><g filter="url(#e)"><path fill="url(#f)" fill-opacity=".5" d="M79 177.455A6.546 6.546 0 0 0 85.546 184h68.909a6.545 6.545 0 0 0 6.545-6.545V153c0-22.644-18.356-41-41-41s-41 18.356-41 41z"/></g><path fill="url(#g)" d="M119 157.978V103h2v55z"/><path fill="url(#h)" fill-rule="evenodd" d="M150 177c2.209 0 4.053-1.836 3.344-3.929C150.241 163.907 136.492 157 120 157s-30.241 6.907-33.344 16.071C85.947 175.164 87.79 177 90 177z" clip-rule="evenodd"/><path fill="url(#i)" fill-rule="evenodd" d="M151 75c1.657 0 3.017 1.347 2.845 2.995C152.26 93.157 138.701 105 120 105S87.74 93.157 86.155 77.995C85.983 76.347 87.343 75 89 75z" clip-rule="evenodd"/></g><defs><linearGradient id="d" x1="145.748" x2="91.018" y1="28.981" y2="129.081" gradientUnits="userSpaceOnUse"><stop stop-color="#D5DFE7"/><stop offset=".283" stop-color="#FDFEFF"/><stop offset=".74" stop-color="#DDE6F4"/><stop offset="1" stop-color="#C8D3E6"/></linearGradient><linearGradient id="f" x1="145.748" x2="91.018" y1="195.019" y2="94.919" gradientUnits="userSpaceOnUse"><stop stop-color="#D5DFE7"/><stop offset=".283" stop-color="#FDFEFF"/><stop offset=".74" stop-color="#DDE6F4"/><stop offset="1" stop-color="#C8D3E6"/></linearGradient><linearGradient id="g" x1="119.75" x2="115.089" y1="156.5" y2="156.157" gradientUnits="userSpaceOnUse"><stop stop-color="#C3CEE4"/><stop offset="1" stop-color="#C3CEE4"/></linearGradient><linearGradient id="h" x1="135.937" x2="129.1" y1="151.757" y2="185.686" gradientUnits="userSpaceOnUse"><stop stop-color="#C7D3EB"/><stop offset="1" stop-color="#B4BCCC"/></linearGradient><linearGradient id="i" x1="136.903" x2="122.944" y1="112.865" y2="63.884" gradientUnits="userSpaceOnUse"><stop stop-color="#C7D3EB"/><stop offset="1" stop-color="#B4BCCC"/></linearGradient><filter id="b" width="139.2" height="27.2" x="50.4" y="201.6" color-interpolation-filters="sRGB" filterUnits="userSpaceOnUse"><feFlood flood-opacity="0" result="BackgroundImageFix"/><feBlend in="SourceGraphic" in2="BackgroundImageFix" result="shape"/><feGaussianBlur result="effect1_foregroundBlur_218_2370" stdDeviation="4.8"/></filter><filter id="c" width="98" height="88" x="71" y="32" color-interpolation-filters="sRGB" filterUnits="userSpaceOnUse"><feFlood flood-opacity="0" result="BackgroundImageFix"/><feGaussianBlur in="BackgroundImageFix" stdDeviation="4"/><feComposite in2="SourceAlpha" operator="in" result="effect1_backgroundBlur_218_2370"/><feBlend in="SourceGraphic" in2="effect1_backgroundBlur_218_2370" result="shape"/><feColorMatrix in="SourceAlpha" result="hardAlpha" values="0 0 0 0 0 0 0 0 0 0 0 0 0 0 0 0 0 0 127 0"/><feOffset dx="-2.4" dy="2.4"/><feGaussianBlur stdDeviation="2.4"/><feComposite in2="hardAlpha" k2="-1" k3="1" operator="arithmetic"/><feColorMatrix values="0 0 0 0 1 0 0 0 0 1 0 0 0 0 1 0 0 0 1 0"/><feBlend in2="shape" result="effect2_innerShadow_218_2370"/><feColorMatrix in="SourceAlpha" result="hardAlpha" values="0 0 0 0 0 0 0 0 0 0 0 0 0 0 0 0 0 0 127 0"/><feOffset dx="1.6" dy="-1.6"/><feGaussianBlur stdDeviation="2.4"/><feComposite in2="hardAlpha" k2="-1" k3="1" operator="arithmetic"/><feColorMatrix values="0 0 0 0 0.866875 0 0 0 0 0.903447 0 0 0 0 0.95 0 0 0 1 0"/><feBlend in2="effect2_innerShadow_218_2370" result="effect3_innerShadow_218_2370"/><feColorMatrix in="SourceAlpha" result="hardAlpha" values="0 0 0 0 0 0 0 0 0 0 0 0 0 0 0 0 0 0 127 0"/><feOffset dx="-1.6" dy="1.6"/><feGaussianBlur stdDeviation="2.4"/><feComposite in2="hardAlpha" k2="-1" k3="1" operator="arithmetic"/><feColorMatrix values="0 0 0 0 0.914375 0 0 0 0 0.924271 0 0 0 0 0.95 0 0 0 1 0"/><feBlend in2="effect3_innerShadow_218_2370" result="effect4_innerShadow_218_2370"/></filter><filter id="e" width="98" height="88" x="71" y="104" color-interpolation-filters="sRGB" filterUnits="userSpaceOnUse"><feFlood flood-opacity="0" result="BackgroundImageFix"/><feGaussianBlur in="BackgroundImageFix" stdDeviation="4"/><feComposite in2="SourceAlpha" operator="in" result="effect1_backgroundBlur_218_2370"/><feBlend in="SourceGraphic" in2="effect1_backgroundBlur_218_2370" result="shape"/><feColorMatrix in="SourceAlpha" result="hardAlpha" values="0 0 0 0 0 0 0 0 0 0 0 0 0 0 0 0 0 0 127 0"/><feOffset dx="-2.4" dy="2.4"/><feGaussianBlur stdDeviation="2.4"/><feComposite in2="hardAlpha" k2="-1" k3="1" operator="arithmetic"/><feColorMatrix values="0 0 0 0 1 0 0 0 0 1 0 0 0 0 1 0 0 0 1 0"/><feBlend in2="shape" result="effect2_innerShadow_218_2370"/><feColorMatrix in="SourceAlpha" result="hardAlpha" values="0 0 0 0 0 0 0 0 0 0 0 0 0 0 0 0 0 0 127 0"/><feOffset dx="1.6" dy="-1.6"/><feGaussianBlur stdDeviation="2.4"/><feComposite in2="hardAlpha" k2="-1" k3="1" operator="arithmetic"/><feColorMatrix values="0 0 0 0 0.866875 0 0 0 0 0.903447 0 0 0 0 0.95 0 0 0 1 0"/><feBlend in2="effect2_innerShadow_218_2370" result="effect3_innerShadow_218_2370"/><feColorMatrix in="SourceAlpha" result="hardAlpha" values="0 0 0 0 0 0 0 0 0 0 0 0 0 0 0 0 0 0 127 0"/><feOffset dx="-1.6" dy="1.6"/><feGaussianBlur stdDeviation="2.4"/><feComposite in2="hardAlpha" k2="-1" k3="1" operator="arithmetic"/><feColorMatrix values="0 0 0 0 0.914375 0 0 0 0 0.924271 0 0 0 0 0.95 0 0 0 1 0"/><feBlend in2="effect3_innerShadow_218_2370" result="effect4_innerShadow_218_2370"/></filter><clipPath id="a"><path fill="#fff" d="M0 0h240v240H0z"/></clipPath></defs></svg>