<svg width="66" height="66" viewBox="0 0 66 66" fill="none" preserveAspectRatio="none" xmlns="http://www.w3.org/2000/svg">
<rect width="66" height="66" fill="white"/>
<rect x="48" y="7" width="4" height="30" rx="0.5" transform="rotate(90 48 7)" fill="#C2D8FF"/>
<rect x="13" y="17" width="35" height="0.5" fill="#99BEFF"/>
<rect x="13" y="26.125" width="35" height="0.5" fill="#99BEFF"/>
<rect x="13" y="35.25" width="35" height="0.5" fill="#99BEFF"/>
<rect x="13" y="44.375" width="35" height="0.5" fill="#99BEFF"/>
<rect x="13" y="53.5" width="35" height="0.5" fill="#99BEFF"/>
<rect x="13.5" y="17" width="37" height="0.5" transform="rotate(90 13.5 17)" fill="#99BEFF"/>
<rect x="17" y="43" width="6" height="10.5" fill="#66DFB0"/>
<rect x="23" y="31" width="6" height="12" fill="#175CEB"/>
<rect x="28" y="36.5" width="1" height="4" transform="rotate(90 28 36.5)" fill="#C2D8FF"/>
<rect x="33" y="34" width="6" height="19.5" fill="#66DFB0"/>
<rect x="39" y="22.4375" width="6" height="11.5625" fill="#175CEB"/>
<rect x="44" y="27.7188" width="1" height="4" transform="rotate(90 44 27.7188)" fill="#C2D8FF"/>
<rect x="28" y="57" width="1" height="10" transform="rotate(90 28 57)" fill="#C2D8FF"/>
<rect x="11" y="51" width="1" height="3" transform="rotate(90 11 51)" fill="#C2D8FF"/>
<rect x="11" y="42" width="1" height="3" transform="rotate(90 11 42)" fill="#C2D8FF"/>
<rect x="11" y="33" width="1" height="3" transform="rotate(90 11 33)" fill="#C2D8FF"/>
<rect x="11" y="24" width="1" height="3" transform="rotate(90 11 24)" fill="#C2D8FF"/>
<rect x="44" y="57" width="1" height="10" transform="rotate(90 44 57)" fill="#C2D8FF"/>
<rect x="60.75" y="29.25" width="13.5" height="9.5" transform="rotate(90 60.75 29.25)" fill="#F1F4FF" stroke="#99BEFF" stroke-width="0.5"/>
<rect x="53" y="31" width="2" height="2" fill="#5C98FF"/>
<rect x="56" y="31.5" width="3" height="1" fill="#5C98FF"/>
<rect x="56" y="35.5" width="3" height="1" fill="#5C98FF"/>
<rect x="56" y="39.5" width="3" height="1" fill="#5C98FF"/>
<rect x="53" y="35" width="2" height="2" fill="#5C98FF"/>
<rect x="53" y="39" width="2" height="2" fill="#5C98FF"/>
<rect x="6" y="44" width="2" height="22" transform="rotate(-180 6 44)" fill="#C2D8FF"/>
</svg>
