<svg width="42" height="14" viewBox="0 0 42 14" fill="none" xmlns="http://www.w3.org/2000/svg">
<g clip-path="url(#clip0_71186_141686)">
<path fill-rule="evenodd" clip-rule="evenodd" d="M10.655 13.2223L17.0317 5.84228C17.6447 5.13281 17.6572 4.08618 17.0613 3.36237L14.9334 0.777832H39.6643C41.0445 0.777832 42.1231 1.96929 41.9862 3.34266L40.4329 11.1204C40.314 12.3135 39.3101 13.2223 38.1111 13.2223H10.655Z" fill="url(#paint0_linear_71186_141686)" fill-opacity="0.9" style=""/>
<path d="M40.2422 11.0824L40.2404 11.0917L40.2394 11.1011C40.1304 12.1948 39.2102 13.0278 38.1111 13.0278H11.08L17.1788 5.96941C17.8538 5.18826 17.8675 4.03573 17.2114 3.23878L15.3454 0.972276H39.6643C40.9264 0.972276 41.9133 2.05909 41.7936 3.3141L40.2422 11.0824Z" stroke="url(#paint1_linear_71186_141686)" stroke-opacity="0.8" style="" stroke-width="0.388889"/>
<path d="M0.694845 4.04154L3.52889 0.779942C3.70196 0.58076 3.95003 0.466797 4.21054 0.466797H12.5116C12.7721 0.466797 13.0202 0.580759 13.1933 0.779942L16.0273 4.04154C16.3359 4.39668 16.3343 4.93234 16.0236 5.28553L9.03898 13.2246C8.67669 13.6364 8.04548 13.6364 7.68318 13.2246L0.698599 5.28553C0.387877 4.93234 0.38626 4.39668 0.694845 4.04154Z" fill="url(#paint2_linear_71186_141686)" style=""/>
<mask id="mask0_71186_141686" style="mask-type:alpha" maskUnits="userSpaceOnUse" x="0" y="0" width="17" height="14">
<path d="M0.694845 4.04154L3.52889 0.779942C3.70196 0.58076 3.95003 0.466797 4.21054 0.466797H12.5116C12.7721 0.466797 13.0202 0.580759 13.1933 0.779942L16.0273 4.04154C16.3359 4.39668 16.3343 4.93234 16.0236 5.28553L9.03898 13.2246C8.67669 13.6364 8.04548 13.6364 7.68318 13.2246L0.698599 5.28553C0.387877 4.93234 0.38626 4.39668 0.694845 4.04154Z" fill="white" style="fill:white;fill-opacity:1;"/>
</mask>
<g mask="url(#mask0_71186_141686)">
<path d="M11.1482 0.466797H5.57409L3.71606 5.60013H13.0062L11.1482 0.466797Z" fill="url(#paint3_linear_71186_141686)" style=""/>
<path d="M0 4.6665L3.71605 5.59984L8.36111 13.9998L13.0062 5.59984L16.7222 4.6665V13.9998H8.36111H0V4.6665Z" fill="url(#paint4_linear_71186_141686)" style=""/>
<g opacity="0.4" filter="url(#filter0_f_71186_141686)">
<path d="M4.645 9.3332C4.645 10.8796 3.3972 12.1332 1.85796 12.1332C0.318722 12.1332 -0.929077 10.8796 -0.929077 9.3332C-0.929077 7.78681 0.318722 6.5332 1.85796 6.5332C3.3972 6.5332 4.645 7.78681 4.645 9.3332Z" fill="white" style="fill:white;fill-opacity:1;"/>
</g>
<g opacity="0.8" filter="url(#filter1_f_71186_141686)">
<path d="M18.5802 0.933431C18.5802 2.2221 17.5404 3.26676 16.2577 3.26676C14.975 3.26676 13.9352 2.2221 13.9352 0.933431C13.9352 -0.355233 14.975 -1.3999 16.2577 -1.3999C17.5404 -1.3999 18.5802 -0.355233 18.5802 0.933431Z" fill="white" style="fill:white;fill-opacity:1;"/>
</g>
<path fill-rule="evenodd" clip-rule="evenodd" d="M8.36099 1.3999L7.71073 4.1999H3.25146L4.92369 6.9999H7.15327L5.574 12.5999L8.36103 14.9332L10.2191 6.9999H11.7983H13.6564L8.36099 1.3999Z" fill="url(#paint5_linear_71186_141686)" style=""/>
</g>
<path fill-rule="evenodd" clip-rule="evenodd" d="M0.344943 3.73452L3.17898 0.472918C3.43923 0.173411 3.81435 0 4.21057 0H12.5117C12.9079 0 13.283 0.173411 13.5432 0.472917L13.5432 0.472918L16.3773 3.73452C16.8393 4.26627 16.837 5.06555 16.3716 5.59445L9.38705 13.5335C8.83988 14.1555 7.88235 14.1555 7.33517 13.5335L0.350584 5.59445C-0.114727 5.06555 -0.117098 4.26627 0.344943 3.73452ZM3.52891 0.779812L0.694874 4.04141C0.386289 4.39655 0.387905 4.93221 0.698627 5.2854L7.68321 13.2245C8.0455 13.6363 8.67672 13.6363 9.03901 13.2245L16.0236 5.2854C16.3343 4.93221 16.3359 4.39655 16.0273 4.04141L13.1933 0.779812C13.0202 0.580629 12.7722 0.466667 12.5117 0.466667H4.21057C3.95006 0.466667 3.70199 0.580629 3.52891 0.779812Z" fill="url(#paint6_linear_71186_141686)" style=""/>
<path fill-rule="evenodd" clip-rule="evenodd" d="M24.5346 6.27363H22.1281L22.2604 5.3613H24.3627L24.4486 4.75308H22.3529L22.4785 3.86719H21.6984L21.5662 4.75308H19.4506L19.3647 5.3613H21.4736L21.3348 6.27363H18.9746L18.8887 6.88185H21.2489L20.8059 9.81719H21.6191L22.0422 6.88185H24.4486L24.5346 6.27363ZM19.9531 7.2653C19.4837 8.01897 19.0275 8.65363 18.34 9.48002H19.2523C19.8341 8.72635 20.277 8.09169 20.7596 7.2653H19.9531ZM23.1991 7.2653H22.4256C22.776 8.14458 23.0405 8.76602 23.3776 9.48002H24.2569C23.8272 8.70652 23.5032 8.01897 23.1991 7.2653ZM33.8959 5.44057H33.1488C33.0829 5.24971 33.0177 5.06726 32.9531 4.88632L32.9531 4.88624C32.8365 4.55952 32.7216 4.23773 32.6067 3.88034H33.3009C33.4728 4.33651 33.6447 4.79268 33.8959 5.44057ZM37.5981 5.30173C37.8956 5.30173 38.008 5.38768 37.9683 5.6984L37.5585 8.88496H36.5007L36.309 8.34284H36.9436L37.0097 7.79412H36.2098L36.0776 8.77918H35.3966L35.5288 7.79412H34.7818L34.6231 8.87834H33.9356L34.4512 5.30173H35.6809C35.5421 5.12323 35.39 4.9249 35.2313 4.71334H35.9982L36.19 4.95134C36.4147 4.83895 36.6197 4.72657 36.7783 4.59434C36.8114 4.5679 36.818 4.54146 36.7783 4.54146H34.4843L34.3388 4.01918H37.6047C37.7766 4.01918 37.8956 4.07207 37.8758 4.2109C37.856 4.35634 37.7832 4.51501 37.6576 4.60096C37.3072 4.84557 36.9106 5.09018 36.5403 5.30173H37.5981ZM35.7933 5.82401H35.0661L35 6.28679H35.7338L35.7933 5.82401ZM37.2477 5.90996C37.261 5.83723 37.2279 5.82401 37.1684 5.82401H36.4742L36.4147 6.28679H37.2015L37.2477 5.90996ZM33.3075 8.60068C33.9818 9.07007 35.0066 9.18246 36.1106 9.18246H37.8692L37.6378 9.81712H35.9057C34.795 9.82373 33.9091 9.69812 33.01 9.12296C32.858 9.37418 32.7059 9.61879 32.5671 9.81712H31.7671C32.2035 9.15601 32.6464 8.42879 32.9307 7.84701C32.9968 7.49662 33.0629 6.96112 33.0893 6.61073C33.096 6.5314 33.0827 6.50496 33.0034 6.50496H32.3423L32.4348 5.89673H33.486C33.7571 5.89673 33.8364 5.96946 33.81 6.24712C33.7571 6.74296 33.6711 7.53629 33.5984 8.03873C33.5191 8.21062 33.4199 8.40234 33.3075 8.60068ZM34.8545 7.29168H35.595L35.6611 6.78923H34.9272L34.8545 7.29168ZM36.2759 7.29168H37.0758L37.1353 6.78923H36.342L36.2759 7.29168ZM31.3573 6.28019L31.2647 6.91486H29.9888L29.5921 9.81714H28.8054L29.2086 6.91486H27.5625C27.2253 8.21064 26.7229 9.0833 26.0089 9.81714H24.9974C25.9626 8.93125 26.465 8.03875 26.7691 6.91486H25.5263L25.6188 6.28019H26.9212C27.0468 5.64552 27.0997 5.16952 27.146 4.72658H26.1543L26.2469 4.09852H31.3506L31.2581 4.72658H30.2929L30.0813 6.28019H31.3573ZM27.7013 6.28019H29.2946L29.5128 4.72658H27.9063C27.8666 5.26869 27.7939 5.80419 27.7013 6.28019Z" fill="url(#paint7_linear_71186_141686)" style=""/>
<path d="M22.1281 6.27363L22.0319 6.25969C22.0279 6.28761 22.0362 6.31592 22.0546 6.33726C22.0731 6.35859 22.0999 6.37085 22.1281 6.37085V6.27363ZM24.5346 6.27363L24.6308 6.28723C24.6348 6.25935 24.6264 6.23113 24.608 6.20988C24.5895 6.18862 24.5627 6.17641 24.5346 6.17641V6.27363ZM22.2604 5.3613V5.26408C22.212 5.26408 22.1711 5.29955 22.1641 5.34735L22.2604 5.3613ZM24.3627 5.3613V5.45852C24.4111 5.45852 24.4522 5.42286 24.459 5.3749L24.3627 5.3613ZM24.4486 4.75308L24.5449 4.76668C24.5488 4.7388 24.5405 4.71058 24.522 4.68932C24.5036 4.66806 24.4768 4.65585 24.4486 4.65585V4.75308ZM22.3529 4.75308L22.2567 4.73943C22.2527 4.76731 22.261 4.79555 22.2795 4.81681C22.298 4.83808 22.3247 4.8503 22.3529 4.8503V4.75308ZM22.4785 3.86719L22.5748 3.88084C22.5787 3.85295 22.5704 3.82472 22.5519 3.80345C22.5335 3.78218 22.5067 3.76997 22.4785 3.76997V3.86719ZM21.6984 3.86719V3.76997C21.6503 3.76997 21.6094 3.80521 21.6023 3.85284L21.6984 3.86719ZM21.5662 4.75308V4.8503C21.6143 4.8503 21.6552 4.81505 21.6623 4.76743L21.5662 4.75308ZM19.4506 4.75308V4.65585C19.4022 4.65585 19.3611 4.69151 19.3544 4.73947L19.4506 4.75308ZM19.3647 5.3613L19.2684 5.3477C19.2645 5.37558 19.2728 5.4038 19.2913 5.42505C19.3098 5.44631 19.3365 5.45852 19.3647 5.45852V5.3613ZM21.4736 5.3613L21.5697 5.37592C21.574 5.34791 21.5658 5.31943 21.5474 5.29793C21.5289 5.27644 21.502 5.26408 21.4736 5.26408V5.3613ZM21.3348 6.27363V6.37085C21.3828 6.37085 21.4237 6.33576 21.4309 6.28826L21.3348 6.27363ZM18.9746 6.27363V6.17641C18.9262 6.17641 18.8851 6.21207 18.8784 6.26003L18.9746 6.27363ZM18.8887 6.88185L18.7924 6.86825C18.7885 6.89613 18.7968 6.92435 18.8153 6.94561C18.8338 6.96687 18.8605 6.97908 18.8887 6.97908V6.88185ZM21.2489 6.88185L21.345 6.89636C21.3492 6.86836 21.341 6.83991 21.3226 6.81844C21.3041 6.79698 21.2772 6.78463 21.2489 6.78463V6.88185ZM20.8059 9.81719L20.7098 9.80268C20.7056 9.83068 20.7137 9.85913 20.7322 9.8806C20.7507 9.90206 20.7776 9.91441 20.8059 9.91441V9.81719ZM21.6191 9.81719V9.91441C21.6674 9.91441 21.7084 9.8789 21.7153 9.83106L21.6191 9.81719ZM22.0422 6.88185V6.78463C21.9939 6.78463 21.9529 6.82014 21.946 6.86798L22.0422 6.88185ZM24.4486 6.88185V6.97908C24.4971 6.97908 24.5381 6.94342 24.5449 6.89546L24.4486 6.88185ZM18.34 9.48002L18.2652 9.41784C18.2411 9.44683 18.2359 9.48715 18.2519 9.52129C18.2679 9.55544 18.3023 9.57724 18.34 9.57724V9.48002ZM19.9531 7.2653V7.16808C19.9195 7.16808 19.8883 7.1854 19.8706 7.2139L19.9531 7.2653ZM19.2523 9.48002V9.57724C19.2824 9.57724 19.3109 9.56328 19.3293 9.53943L19.2523 9.48002ZM20.7596 7.2653L20.8436 7.31433C20.8611 7.28426 20.8613 7.2471 20.844 7.2169C20.8266 7.1867 20.7945 7.16808 20.7596 7.16808V7.2653ZM22.4256 7.2653V7.16808C22.3934 7.16808 22.3633 7.18406 22.3452 7.21074C22.3271 7.23742 22.3234 7.27134 22.3353 7.30129L22.4256 7.2653ZM23.1991 7.2653L23.2893 7.22892C23.2745 7.19215 23.2388 7.16808 23.1991 7.16808V7.2653ZM23.3776 9.48002L23.2897 9.52154C23.3058 9.55555 23.34 9.57724 23.3776 9.57724V9.48002ZM24.2569 9.48002V9.57724C24.2914 9.57724 24.3232 9.55901 24.3407 9.52933C24.3582 9.49964 24.3586 9.46292 24.3419 9.43281L24.2569 9.48002ZM33.1488 5.44057L33.057 5.47233C33.0705 5.51151 33.1074 5.53779 33.1488 5.53779V5.44057ZM33.8959 5.44057V5.53779C33.928 5.53779 33.958 5.52197 33.9761 5.4955C33.9942 5.46903 33.9981 5.43533 33.9865 5.40542L33.8959 5.44057ZM32.9531 4.88632L33.0447 4.85363L33.0442 4.85228L32.9531 4.88632ZM32.9531 4.88624L32.8615 4.91893L32.8621 4.92029L32.9531 4.88624ZM32.6067 3.88034V3.78312C32.5757 3.78312 32.5465 3.79797 32.5282 3.82307C32.5099 3.84818 32.5047 3.88052 32.5142 3.9101L32.6067 3.88034ZM33.3009 3.88034L33.3919 3.84606C33.3776 3.80819 33.3414 3.78312 33.3009 3.78312V3.88034ZM37.9683 5.6984L38.0648 5.7108L38.0648 5.71071L37.9683 5.6984ZM37.5585 8.88496V8.98218C37.6074 8.98218 37.6486 8.94586 37.6549 8.89736L37.5585 8.88496ZM36.5007 8.88496L36.409 8.91737C36.4228 8.95621 36.4595 8.98218 36.5007 8.98218V8.88496ZM36.309 8.34284V8.24562C36.2774 8.24562 36.2478 8.26094 36.2296 8.28672C36.2114 8.31249 36.2068 8.3455 36.2173 8.37526L36.309 8.34284ZM36.9436 8.34284V8.44007C36.9928 8.44007 37.0343 8.40332 37.0401 8.35447L36.9436 8.34284ZM37.0097 7.79412L37.1063 7.80575C37.1096 7.77814 37.1009 7.75043 37.0825 7.72962C37.064 7.70881 37.0375 7.6969 37.0097 7.6969V7.79412ZM36.2098 7.79412V7.6969C36.1611 7.6969 36.1199 7.73293 36.1134 7.78119L36.2098 7.79412ZM36.0776 8.77918V8.8764C36.1263 8.8764 36.1674 8.84037 36.1739 8.79211L36.0776 8.77918ZM35.3966 8.77918L35.3003 8.76624C35.2965 8.79403 35.305 8.82208 35.3234 8.84319C35.3419 8.86429 35.3686 8.8764 35.3966 8.8764V8.77918ZM35.5288 7.79412L35.6252 7.80706C35.6289 7.77926 35.6205 7.75122 35.602 7.73011C35.5836 7.70901 35.5569 7.6969 35.5288 7.6969V7.79412ZM34.7818 7.79412V7.6969C34.7335 7.6969 34.6926 7.7323 34.6856 7.78004L34.7818 7.79412ZM34.6231 8.87834V8.97557C34.6714 8.97557 34.7123 8.94017 34.7193 8.89242L34.6231 8.87834ZM33.9356 8.87834L33.8393 8.86447C33.8353 8.89239 33.8436 8.92068 33.8621 8.942C33.8805 8.96332 33.9074 8.97557 33.9356 8.97557V8.87834ZM34.4512 5.30173V5.20451C34.4029 5.20451 34.3619 5.24002 34.355 5.28786L34.4512 5.30173ZM35.6809 5.30173V5.39896C35.718 5.39896 35.7519 5.3778 35.7682 5.34445C35.7846 5.31109 35.7804 5.27135 35.7576 5.24204L35.6809 5.30173ZM35.2313 4.71334V4.61612C35.1945 4.61612 35.1609 4.63693 35.1444 4.66986C35.1279 4.7028 35.1315 4.74222 35.1536 4.77168L35.2313 4.71334ZM35.9982 4.71334L36.0739 4.65235C36.0555 4.62944 36.0277 4.61612 35.9982 4.61612V4.71334ZM36.19 4.95134L36.1142 5.01233C36.1429 5.04794 36.1925 5.05875 36.2334 5.0383L36.19 4.95134ZM36.7783 4.59434L36.7176 4.51841L36.7161 4.51966L36.7783 4.59434ZM34.4843 4.54146L34.3906 4.56754C34.4023 4.60959 34.4406 4.63868 34.4843 4.63868V4.54146ZM34.3388 4.01918V3.92195C34.3085 3.92195 34.2798 3.93617 34.2614 3.96037C34.243 3.98457 34.237 4.01598 34.2452 4.04526L34.3388 4.01918ZM37.8758 4.2109L37.7795 4.19715L37.7795 4.19776L37.8758 4.2109ZM37.6576 4.60096L37.6027 4.52071L37.602 4.52124L37.6576 4.60096ZM36.5403 5.30173L36.4921 5.21732C36.4538 5.23919 36.4351 5.28408 36.4464 5.32669C36.4577 5.36929 36.4963 5.39896 36.5403 5.39896V5.30173ZM35.0661 5.82401V5.72679C35.0177 5.72679 34.9767 5.76237 34.9698 5.81026L35.0661 5.82401ZM35.7933 5.82401L35.8897 5.83641C35.8933 5.80869 35.8847 5.78078 35.8663 5.7598C35.8478 5.73881 35.8212 5.72679 35.7933 5.72679V5.82401ZM35 6.28679L34.9037 6.27304C34.8997 6.30094 34.908 6.3292 34.9265 6.35049C34.945 6.37178 34.9718 6.38401 35 6.38401V6.28679ZM35.7338 6.28679V6.38401C35.7827 6.38401 35.824 6.34769 35.8302 6.29919L35.7338 6.28679ZM37.2477 5.90996L37.1519 5.89253L37.1512 5.8981L37.2477 5.90996ZM36.4742 5.82401V5.72679C36.4253 5.72679 36.384 5.76311 36.3778 5.81161L36.4742 5.82401ZM36.4147 6.28679L36.3183 6.27439C36.3147 6.30211 36.3233 6.33002 36.3417 6.351C36.3602 6.37199 36.3868 6.38401 36.4147 6.38401V6.28679ZM37.2015 6.28679V6.38401C37.2506 6.38401 37.292 6.34738 37.298 6.29864L37.2015 6.28679ZM33.3075 8.60068L33.2229 8.55275C33.1982 8.59643 33.2108 8.65178 33.252 8.68047L33.3075 8.60068ZM37.8692 9.18246L37.9605 9.21576C37.9714 9.18595 37.967 9.15271 37.9488 9.12671C37.9306 9.10072 37.9009 9.08523 37.8692 9.08523V9.18246ZM37.6378 9.81712V9.91434C37.6786 9.91434 37.7151 9.8888 37.7291 9.85042L37.6378 9.81712ZM35.9057 9.81712V9.7199L35.9051 9.7199L35.9057 9.81712ZM33.01 9.12296L33.0624 9.04106C33.0403 9.02694 33.0135 9.02232 32.988 9.02826C32.9625 9.03421 32.9404 9.0502 32.9268 9.07261L33.01 9.12296ZM32.5671 9.81712V9.91434C32.5988 9.91434 32.6285 9.89887 32.6467 9.87288L32.5671 9.81712ZM31.7671 9.81712L31.686 9.76357C31.6663 9.79343 31.6646 9.83169 31.6815 9.8632C31.6985 9.8947 31.7313 9.91434 31.7671 9.91434V9.81712ZM32.9307 7.84701L33.018 7.88969C33.0219 7.88188 33.0246 7.87358 33.0262 7.86504L32.9307 7.84701ZM33.0893 6.61073L32.9925 6.60266L32.9924 6.60342L33.0893 6.61073ZM32.3423 6.50496L32.2462 6.49033C32.2419 6.51835 32.2501 6.54683 32.2686 6.56832C32.287 6.58981 32.314 6.60218 32.3423 6.60218V6.50496ZM32.4348 5.89673V5.79951C32.3868 5.79951 32.346 5.83461 32.3387 5.88211L32.4348 5.89673ZM33.81 6.24712L33.9066 6.25743L33.9067 6.25634L33.81 6.24712ZM33.5984 8.03873L33.6867 8.07947C33.6906 8.07097 33.6933 8.06193 33.6946 8.05266L33.5984 8.03873ZM35.595 7.29168V7.3889C35.6438 7.3889 35.685 7.35274 35.6914 7.30436L35.595 7.29168ZM34.8545 7.29168L34.7583 7.27775C34.7543 7.30568 34.7625 7.33398 34.781 7.35531C34.7995 7.37664 34.8263 7.3889 34.8545 7.3889V7.29168ZM35.6611 6.78923L35.7575 6.80192C35.7611 6.77416 35.7526 6.74618 35.7342 6.72513C35.7157 6.70408 35.6891 6.69201 35.6611 6.69201V6.78923ZM34.9272 6.78923V6.69201C34.8789 6.69201 34.8379 6.72749 34.831 6.77531L34.9272 6.78923ZM37.0758 7.29168V7.3889C37.1251 7.3889 37.1666 7.35204 37.1724 7.30311L37.0758 7.29168ZM36.2759 7.29168L36.1795 7.27899C36.1759 7.30675 36.1843 7.33474 36.2028 7.35578C36.2213 7.37683 36.2479 7.3889 36.2759 7.3889V7.29168ZM37.1353 6.78923L37.2319 6.80067C37.2352 6.77308 37.2265 6.74542 37.208 6.72466C37.1896 6.70389 37.1631 6.69201 37.1353 6.69201V6.78923ZM36.342 6.78923V6.69201C36.2932 6.69201 36.252 6.72818 36.2456 6.77655L36.342 6.78923ZM31.2647 6.91486V7.01208C31.313 7.01208 31.3539 6.97666 31.3609 6.92889L31.2647 6.91486ZM31.3573 6.28019L31.4535 6.29422C31.4575 6.26628 31.4493 6.23795 31.4308 6.2166C31.4123 6.19524 31.3855 6.18297 31.3573 6.18297V6.28019ZM29.9888 6.91486V6.81764C29.9401 6.81764 29.899 6.85353 29.8924 6.90169L29.9888 6.91486ZM29.5921 9.81714V9.91436C29.6407 9.91436 29.6818 9.87846 29.6884 9.8303L29.5921 9.81714ZM28.8054 9.81714L28.7091 9.80376C28.7052 9.83161 28.7136 9.85977 28.732 9.88098C28.7505 9.90218 28.7772 9.91436 28.8054 9.91436V9.81714ZM29.2086 6.91486L29.3049 6.92824C29.3088 6.90039 29.3004 6.87222 29.282 6.85102C29.2635 6.82981 29.2368 6.81764 29.2086 6.81764V6.91486ZM27.5625 6.91486V6.81764C27.5182 6.81764 27.4795 6.84754 27.4684 6.89038L27.5625 6.91486ZM26.0089 9.81714V9.91436C26.0351 9.91436 26.0602 9.90375 26.0785 9.88493L26.0089 9.81714ZM24.9974 9.81714L24.9316 9.74551C24.9021 9.77261 24.8922 9.81506 24.9068 9.85241C24.9213 9.88976 24.9573 9.91436 24.9974 9.91436V9.81714ZM26.7691 6.91486L26.863 6.94025C26.8709 6.91104 26.8647 6.8798 26.8463 6.85577C26.8279 6.83173 26.7994 6.81764 26.7691 6.81764V6.91486ZM25.5263 6.91486L25.43 6.90083C25.426 6.92877 25.4342 6.95709 25.4527 6.97845C25.4712 6.99981 25.498 7.01208 25.5263 7.01208V6.91486ZM25.6188 6.28019V6.18297C25.5705 6.18297 25.5296 6.21839 25.5226 6.26616L25.6188 6.28019ZM26.9212 6.28019V6.37741C26.9676 6.37741 27.0076 6.3446 27.0166 6.29907L26.9212 6.28019ZM27.146 4.72658L27.2427 4.73668C27.2455 4.70929 27.2366 4.68197 27.2182 4.6615C27.1998 4.64104 27.1735 4.62936 27.146 4.62936V4.72658ZM26.1543 4.72658L26.0581 4.71241C26.054 4.74036 26.0623 4.76873 26.0807 4.79012C26.0992 4.81151 26.126 4.8238 26.1543 4.8238V4.72658ZM26.2469 4.09852V4.0013C26.1986 4.0013 26.1577 4.03665 26.1507 4.08435L26.2469 4.09852ZM31.3506 4.09852L31.4468 4.1127C31.4509 4.08474 31.4427 4.05638 31.4242 4.03499C31.4058 4.0136 31.3789 4.0013 31.3506 4.0013V4.09852ZM31.2581 4.72658V4.8238C31.3063 4.8238 31.3472 4.78846 31.3543 4.74075L31.2581 4.72658ZM30.2929 4.72658V4.62936C30.2442 4.62936 30.2031 4.66528 30.1965 4.71346L30.2929 4.72658ZM30.0813 6.28019L29.985 6.26707C29.9812 6.29489 29.9896 6.32298 30.0081 6.34413C30.0265 6.36528 30.0532 6.37741 30.0813 6.37741V6.28019ZM29.2946 6.28019V6.37741C29.3431 6.37741 29.3841 6.34171 29.3909 6.29371L29.2946 6.28019ZM27.7013 6.28019L27.6059 6.26163C27.6003 6.29014 27.6078 6.31962 27.6263 6.34203C27.6448 6.36444 27.6723 6.37741 27.7013 6.37741V6.28019ZM29.5128 4.72658L29.609 4.7401C29.6129 4.71223 29.6046 4.68403 29.5861 4.66279C29.5677 4.64155 29.5409 4.62936 29.5128 4.62936V4.72658ZM27.9063 4.72658V4.62936C27.8553 4.62936 27.813 4.66868 27.8093 4.71949L27.9063 4.72658ZM22.1281 6.37085H24.5346V6.17641H22.1281V6.37085ZM22.1641 5.34735L22.0319 6.25969L22.2243 6.28758L22.3566 5.37524L22.1641 5.34735ZM24.3627 5.26408H22.2604V5.45852H24.3627V5.26408ZM24.3524 4.73947L24.2664 5.3477L24.459 5.3749L24.5449 4.76668L24.3524 4.73947ZM22.3529 4.8503H24.4486V4.65585H22.3529V4.8503ZM22.3823 3.85354L22.2567 4.73943L22.4492 4.76673L22.5748 3.88084L22.3823 3.85354ZM21.6984 3.96441H22.4785V3.76997H21.6984V3.96441ZM21.6623 4.76743L21.7946 3.88154L21.6023 3.85284L21.47 4.73872L21.6623 4.76743ZM19.4506 4.8503H21.5662V4.65585H19.4506V4.8503ZM19.461 5.3749L19.5469 4.76668L19.3544 4.73947L19.2684 5.3477L19.461 5.3749ZM21.4736 5.26408H19.3647V5.45852H21.4736V5.26408ZM21.4309 6.28826L21.5697 5.37592L21.3775 5.34667L21.2387 6.25901L21.4309 6.28826ZM18.9746 6.37085H21.3348V6.17641H18.9746V6.37085ZM18.985 6.89546L19.0709 6.28723L18.8784 6.26003L18.7924 6.86825L18.985 6.89546ZM21.2489 6.78463H18.8887V6.97908H21.2489V6.78463ZM20.902 9.83169L21.345 6.89636L21.1527 6.86735L20.7098 9.80268L20.902 9.83169ZM21.6191 9.71997H20.8059V9.91441H21.6191V9.71997ZM21.946 6.86798L21.5228 9.80332L21.7153 9.83106L22.1384 6.89573L21.946 6.86798ZM24.4486 6.78463H22.0422V6.97908H24.4486V6.78463ZM24.4383 6.26003L24.3524 6.86825L24.5449 6.89546L24.6308 6.28723L24.4383 6.26003ZM18.4147 9.5422C19.1049 8.71267 19.5637 8.07441 20.0356 7.3167L19.8706 7.2139C19.4037 7.96352 18.9502 8.5946 18.2652 9.41784L18.4147 9.5422ZM19.2523 9.3828H18.34V9.57724H19.2523V9.3828ZM20.6757 7.21627C20.1956 8.03829 19.7552 8.66947 19.1753 9.42061L19.3293 9.53943C19.913 8.78324 20.3584 8.14509 20.8436 7.31433L20.6757 7.21627ZM19.9531 7.36252H20.7596V7.16808H19.9531V7.36252ZM22.4256 7.36252H23.1991V7.16808H22.4256V7.36252ZM23.4655 9.43851C23.1295 8.72686 22.8659 8.10737 22.5159 7.22931L22.3353 7.30129C22.6862 8.18178 22.9514 8.80518 23.2897 9.52154L23.4655 9.43851ZM24.2569 9.3828H23.3776V9.57724H24.2569V9.3828ZM23.109 7.30168C23.4145 8.05894 23.7402 8.75012 24.1719 9.52724L24.3419 9.43281C23.9142 8.66292 23.592 7.97899 23.2893 7.22892L23.109 7.30168ZM33.1488 5.53779H33.8959V5.34334H33.1488V5.53779ZM32.8616 4.91901C32.9262 5.10001 32.9912 5.28201 33.057 5.47233L33.2407 5.4088C33.1746 5.21742 33.1093 5.03451 33.0447 4.85363L32.8616 4.91901ZM32.8621 4.92029L32.8621 4.92036L33.0442 4.85228L33.0442 4.8522L32.8621 4.92029ZM32.5142 3.9101C32.6296 4.26917 32.745 4.59235 32.8616 4.91893L33.0447 4.85356C32.928 4.52669 32.8136 4.20629 32.6993 3.85059L32.5142 3.9101ZM33.3009 3.78312H32.6067V3.97757H33.3009V3.78312ZM33.9865 5.40542C33.7355 4.75799 33.5638 4.30218 33.3919 3.84606L33.2099 3.91463C33.3818 4.37084 33.5539 4.82737 33.8053 5.47571L33.9865 5.40542ZM38.0648 5.71071C38.0854 5.54938 38.0726 5.40902 37.9784 5.3148C37.8878 5.22422 37.7482 5.20451 37.5981 5.20451V5.39896C37.7455 5.39896 37.8109 5.42222 37.8409 5.45229C37.8674 5.47872 37.891 5.53669 37.8719 5.68609L38.0648 5.71071ZM37.6549 8.89736L38.0648 5.7108L37.8719 5.686L37.462 8.87255L37.6549 8.89736ZM36.5007 8.98218H37.5585V8.78773H36.5007V8.98218ZM36.2173 8.37526L36.409 8.91737L36.5923 8.85254L36.4006 8.31043L36.2173 8.37526ZM36.9436 8.24562H36.309V8.44007H36.9436V8.24562ZM36.9132 7.78249L36.8471 8.33122L37.0401 8.35447L37.1063 7.80575L36.9132 7.78249ZM36.2098 7.89134H37.0097V7.6969H36.2098V7.89134ZM36.1739 8.79211L36.3061 7.80706L36.1134 7.78119L35.9812 8.76624L36.1739 8.79211ZM35.3966 8.8764H36.0776V8.68196H35.3966V8.8764ZM35.4325 7.78119L35.3003 8.76624L35.493 8.79211L35.6252 7.80706L35.4325 7.78119ZM34.7818 7.89134H35.5288V7.6969H34.7818V7.89134ZM34.7193 8.89242L34.878 7.8082L34.6856 7.78004L34.5269 8.86427L34.7193 8.89242ZM33.9356 8.97557H34.6231V8.78112H33.9356V8.97557ZM34.355 5.28786L33.8393 8.86447L34.0318 8.89222L34.5475 5.31561L34.355 5.28786ZM35.6809 5.20451H34.4512V5.39896H35.6809V5.20451ZM35.1536 4.77168C35.3126 4.98375 35.465 5.18253 35.6042 5.36142L35.7576 5.24204C35.6191 5.06393 35.4674 4.86605 35.3091 4.65501L35.1536 4.77168ZM35.9982 4.61612H35.2313V4.81057H35.9982V4.61612ZM36.2657 4.89035L36.0739 4.65235L35.9225 4.77433L36.1142 5.01233L36.2657 4.89035ZM36.7161 4.51966C36.5668 4.64405 36.3708 4.75222 36.1465 4.86439L36.2334 5.0383C36.4587 4.92569 36.6725 4.80908 36.8406 4.66903L36.7161 4.51966ZM36.7783 4.63868C36.7782 4.63868 36.7752 4.63869 36.7704 4.63763C36.7657 4.6366 36.7568 4.63404 36.7467 4.62747C36.736 4.6205 36.7246 4.60936 36.7169 4.59334C36.7092 4.57745 36.7077 4.56196 36.7087 4.54991C36.7105 4.52869 36.7198 4.51694 36.7201 4.51659C36.7216 4.51452 36.7214 4.5154 36.7176 4.51843L36.8391 4.67026C36.8518 4.66007 36.8648 4.64772 36.8756 4.63326C36.8852 4.62051 36.8999 4.59719 36.9025 4.56606C36.9058 4.52653 36.8881 4.48751 36.8528 4.46453C36.8252 4.44659 36.7959 4.44423 36.7783 4.44423V4.63868ZM34.4843 4.63868H36.7783V4.44423H34.4843V4.63868ZM34.2452 4.04526L34.3906 4.56754L34.5779 4.51537L34.4325 3.9931L34.2452 4.04526ZM37.6047 3.92195H34.3388V4.1164H37.6047V3.92195ZM37.972 4.22465C37.9791 4.1754 37.9747 4.12682 37.9546 4.08237C37.9344 4.03771 37.9017 4.00436 37.8638 3.98061C37.7918 3.93543 37.6968 3.92195 37.6047 3.92195V4.1164C37.6846 4.1164 37.735 4.12936 37.7605 4.14534C37.7714 4.15217 37.7754 4.15807 37.7774 4.16238C37.7794 4.16689 37.7824 4.17698 37.7795 4.19715L37.972 4.22465ZM37.7125 4.68119C37.8679 4.57487 37.9499 4.38679 37.9721 4.22404L37.7795 4.19776C37.762 4.3259 37.6986 4.45515 37.6027 4.52072L37.7125 4.68119ZM36.5886 5.38615C36.9606 5.17356 37.3599 4.92738 37.7133 4.68067L37.602 4.52124C37.2546 4.76375 36.8605 5.0068 36.4921 5.21732L36.5886 5.38615ZM37.5981 5.20451H36.5403V5.39896H37.5981V5.20451ZM35.0661 5.92123H35.7933V5.72679H35.0661V5.92123ZM35.0962 6.30054L35.1623 5.83776L34.9698 5.81026L34.9037 6.27304L35.0962 6.30054ZM35.7338 6.18957H35V6.38401H35.7338V6.18957ZM35.6969 5.81161L35.6374 6.27439L35.8302 6.29919L35.8897 5.83641L35.6969 5.81161ZM37.1684 5.92123C37.1806 5.92123 37.1861 5.922 37.1877 5.92234C37.1892 5.92265 37.1808 5.92128 37.171 5.91261C37.166 5.90816 37.1617 5.9028 37.1586 5.89702C37.1556 5.8914 37.1543 5.88667 37.1538 5.88392C37.1529 5.87935 37.1542 5.88083 37.1521 5.89256L37.3434 5.92735C37.3517 5.88173 37.3535 5.81428 37.2997 5.76681C37.2552 5.72757 37.1963 5.72679 37.1684 5.72679V5.92123ZM36.4742 5.92123H37.1684V5.72679H36.4742V5.92123ZM36.5112 6.29919L36.5707 5.83641L36.3778 5.81161L36.3183 6.27439L36.5112 6.29919ZM37.2015 6.18957H36.4147V6.38401H37.2015V6.18957ZM37.1512 5.8981L37.105 6.27494L37.298 6.29864L37.3442 5.92181L37.1512 5.8981ZM36.1106 9.08523C35.0062 9.08523 34.01 8.9712 33.3631 8.52088L33.252 8.68047C33.9537 9.16894 35.007 9.27968 36.1106 9.27968V9.08523ZM37.8692 9.08523H36.1106V9.27968H37.8692V9.08523ZM37.7291 9.85042L37.9605 9.21576L37.7778 9.14915L37.5464 9.78382L37.7291 9.85042ZM35.9057 9.91434H37.6378V9.7199H35.9057V9.91434ZM32.9576 9.20485C33.8794 9.79452 34.7871 9.921 35.9063 9.91434L35.9051 9.7199C34.8029 9.72646 33.9389 9.60173 33.0624 9.04106L32.9576 9.20485ZM32.6467 9.87288C32.7875 9.67169 32.941 9.4247 33.0932 9.1733L32.9268 9.07261C32.7749 9.32366 32.6243 9.56588 32.4874 9.76137L32.6467 9.87288ZM31.7671 9.91434H32.5671V9.7199H31.7671V9.91434ZM32.8433 7.80433C32.5618 8.38053 32.1215 9.10369 31.686 9.76357L31.8483 9.87068C32.2854 9.20833 32.731 8.47705 33.018 7.88969L32.8433 7.80433ZM32.9924 6.60342C32.9662 6.95085 32.9005 7.48271 32.8351 7.82898L33.0262 7.86504C33.0931 7.51053 33.1596 6.9714 33.1863 6.61805L32.9924 6.60342ZM33.0034 6.60218C33.0108 6.60218 33.0159 6.60249 33.0195 6.60288C33.023 6.60327 33.0239 6.60365 33.0231 6.60338C33.0221 6.60309 33.0187 6.60195 33.0142 6.59904C33.0095 6.59597 33.0048 6.59173 33.0008 6.58643C32.993 6.57597 32.9928 6.56795 32.9933 6.57171C32.9934 6.57336 32.9937 6.5766 32.9936 6.58205C32.9935 6.58745 32.9932 6.59419 32.9925 6.60266L33.1862 6.61881C33.1881 6.59694 33.1891 6.57292 33.1865 6.54976C33.1838 6.52626 33.1766 6.49675 33.1564 6.46976C33.1134 6.41249 33.045 6.40773 33.0034 6.40773V6.60218ZM32.3423 6.60218H33.0034V6.40773H32.3423V6.60218ZM32.3387 5.88211L32.2462 6.49033L32.4384 6.51958L32.531 5.91136L32.3387 5.88211ZM33.486 5.79951H32.4348V5.99396H33.486V5.79951ZM33.9067 6.25634C33.9201 6.11631 33.9128 5.98766 33.8299 5.90073C33.7484 5.81522 33.621 5.79951 33.486 5.79951V5.99396C33.6221 5.99396 33.6699 6.01461 33.6892 6.03488C33.7071 6.05372 33.7263 6.10027 33.7132 6.2379L33.9067 6.25634ZM33.6946 8.05266C33.7677 7.54805 33.8538 6.75276 33.9066 6.25743L33.7133 6.23681C33.6603 6.73315 33.5746 7.52453 33.5022 8.02481L33.6946 8.05266ZM33.3921 8.64861C33.5056 8.44836 33.606 8.25422 33.6867 8.07947L33.5101 7.99799C33.4321 8.16703 33.3342 8.35633 33.2229 8.55275L33.3921 8.64861ZM35.595 7.19446H34.8545V7.3889H35.595V7.19446ZM35.5647 6.77655L35.4986 7.27899L35.6914 7.30436L35.7575 6.80192L35.5647 6.77655ZM34.9272 6.88646H35.6611V6.69201H34.9272V6.88646ZM34.9507 7.3056L35.0235 6.80316L34.831 6.77531L34.7583 7.27775L34.9507 7.3056ZM37.0758 7.19446H36.2759V7.3889H37.0758V7.19446ZM37.0388 6.7778L36.9793 7.28024L37.1724 7.30311L37.2319 6.80067L37.0388 6.7778ZM36.342 6.88646H37.1353V6.69201H36.342V6.88646ZM36.3723 7.30436L36.4384 6.80192L36.2456 6.77655L36.1795 7.27899L36.3723 7.30436ZM31.3609 6.92889L31.4535 6.29422L31.261 6.26616L31.1685 6.90083L31.3609 6.92889ZM29.9888 7.01208H31.2647V6.81764H29.9888V7.01208ZM29.6884 9.8303L30.0851 6.92802L29.8924 6.90169L29.4958 9.80397L29.6884 9.8303ZM28.8054 9.91436H29.5921V9.71991H28.8054V9.91436ZM29.1123 6.90148L28.7091 9.80376L28.9017 9.83052L29.3049 6.92824L29.1123 6.90148ZM27.5625 7.01208H29.2086V6.81764H27.5625V7.01208ZM26.0785 9.88493C26.8056 9.13768 27.3157 8.24951 27.6566 6.93934L27.4684 6.89038C27.135 8.17176 26.6401 9.02893 25.9392 9.74934L26.0785 9.88493ZM24.9974 9.91436H26.0089V9.71991H24.9974V9.91436ZM26.6753 6.88946C26.3758 7.99643 25.8827 8.87263 24.9316 9.74551L25.0631 9.88876C26.0425 8.98986 26.5543 8.08107 26.863 6.94025L26.6753 6.88946ZM25.5263 7.01208H26.7691V6.81764H25.5263V7.01208ZM25.5226 6.26616L25.43 6.90083L25.6225 6.92889L25.715 6.29422L25.5226 6.26616ZM26.9212 6.18297H25.6188V6.37741H26.9212V6.18297ZM27.0493 4.71648C27.0031 5.15853 26.9506 5.63104 26.8258 6.26132L27.0166 6.29907C27.143 5.66001 27.1963 5.18052 27.2427 4.73668L27.0493 4.71648ZM26.1543 4.8238H27.146V4.62936H26.1543V4.8238ZM26.1507 4.08435L26.0581 4.71241L26.2505 4.74075L26.343 4.1127L26.1507 4.08435ZM31.3506 4.0013H26.2469V4.19575H31.3506V4.0013ZM31.3543 4.74075L31.4468 4.1127L31.2545 4.08435L31.1619 4.71241L31.3543 4.74075ZM30.2929 4.8238H31.2581V4.62936H30.2929V4.8238ZM30.1776 6.29331L30.3892 4.7397L30.1965 4.71346L29.985 6.26707L30.1776 6.29331ZM31.3573 6.18297H30.0813V6.37741H31.3573V6.18297ZM29.2946 6.18297H27.7013V6.37741H29.2946V6.18297ZM29.4165 4.71306L29.1983 6.26667L29.3909 6.29371L29.609 4.7401L29.4165 4.71306ZM27.9063 4.8238H29.5128V4.62936H27.9063V4.8238ZM27.7967 6.29875C27.89 5.81891 27.9633 5.27958 28.0032 4.73368L27.8093 4.71949C27.7699 5.2578 27.6977 5.78947 27.6059 6.26163L27.7967 6.29875Z" fill="url(#paint8_linear_71186_141686)" style=""/>
</g>
<defs>
<filter id="filter0_f_71186_141686" x="-2.09574" y="5.36654" width="7.90743" height="7.93343" filterUnits="userSpaceOnUse" color-interpolation-filters="sRGB">
<feFlood flood-opacity="0" result="BackgroundImageFix"/>
<feBlend mode="normal" in="SourceGraphic" in2="BackgroundImageFix" result="shape"/>
<feGaussianBlur stdDeviation="0.583333" result="effect1_foregroundBlur_71186_141686"/>
</filter>
<filter id="filter1_f_71186_141686" x="13.1574" y="-2.17768" width="6.20058" height="6.22206" filterUnits="userSpaceOnUse" color-interpolation-filters="sRGB">
<feFlood flood-opacity="0" result="BackgroundImageFix"/>
<feBlend mode="normal" in="SourceGraphic" in2="BackgroundImageFix" result="shape"/>
<feGaussianBlur stdDeviation="0.388889" result="effect1_foregroundBlur_71186_141686"/>
</filter>
<linearGradient id="paint0_linear_71186_141686" x1="13.0066" y1="4.50468" x2="35.6548" y2="7.15267" gradientUnits="userSpaceOnUse">
<stop stop-color="#E4E6E8" style="stop-color:#E4E6E8;stop-color:color(display-p3 0.8941 0.9038 0.9087);stop-opacity:1;"/>
<stop offset="1" stop-color="#DBDDDF" style="stop-color:#DBDDDF;stop-color:color(display-p3 0.8586 0.8683 0.8757);stop-opacity:1;"/>
</linearGradient>
<linearGradient id="paint1_linear_71186_141686" x1="23.6777" y1="0.777832" x2="23.6777" y2="13.2223" gradientUnits="userSpaceOnUse">
<stop stop-color="white" style="stop-color:white;stop-opacity:1;"/>
<stop offset="1" stop-color="#B3B4B7" style="stop-color:#B3B4B7;stop-color:color(display-p3 0.7017 0.7059 0.7167);stop-opacity:1;"/>
</linearGradient>
<linearGradient id="paint2_linear_71186_141686" x1="-0.412923" y1="0.0162221" x2="-0.412923" y2="13.5335" gradientUnits="userSpaceOnUse">
<stop stop-color="#AAAAAA" style="stop-color:#AAAAAA;stop-color:color(display-p3 0.6667 0.6667 0.6667);stop-opacity:1;"/>
<stop offset="0.358179" stop-color="#CFD1D2" style="stop-color:#CFD1D2;stop-color:color(display-p3 0.8112 0.8201 0.8250);stop-opacity:1;"/>
<stop offset="1" stop-color="#C2C2C2" style="stop-color:#C2C2C2;stop-color:color(display-p3 0.7608 0.7608 0.7608);stop-opacity:1;"/>
</linearGradient>
<linearGradient id="paint3_linear_71186_141686" x1="8.2431" y1="-3.78088" x2="5.26627" y2="4.54243" gradientUnits="userSpaceOnUse">
<stop stop-color="#BDBDBD" style="stop-color:#BDBDBD;stop-color:color(display-p3 0.7417 0.7417 0.7417);stop-opacity:1;"/>
<stop offset="1" stop-color="#ECECEC" style="stop-color:#ECECEC;stop-color:color(display-p3 0.9250 0.9250 0.9250);stop-opacity:1;"/>
</linearGradient>
<linearGradient id="paint4_linear_71186_141686" x1="15.3287" y1="8.39984" x2="2.76244" y2="1.91416" gradientUnits="userSpaceOnUse">
<stop stop-color="#AEB0B1" style="stop-color:#AEB0B1;stop-color:color(display-p3 0.6824 0.6902 0.6941);stop-opacity:1;"/>
<stop offset="1" stop-color="#B6B8B8" style="stop-color:#B6B8B8;stop-color:color(display-p3 0.7137 0.7216 0.7216);stop-opacity:1;"/>
</linearGradient>
<linearGradient id="paint5_linear_71186_141686" x1="6.22426" y1="4.66657" x2="10.8929" y2="9.77834" gradientUnits="userSpaceOnUse">
<stop stop-color="#5A5A5A" style="stop-color:#5A5A5A;stop-color:color(display-p3 0.3529 0.3529 0.3529);stop-opacity:1;"/>
<stop offset="1" stop-color="#6F6F6F" style="stop-color:#6F6F6F;stop-color:color(display-p3 0.4333 0.4333 0.4333);stop-opacity:1;"/>
</linearGradient>
<linearGradient id="paint6_linear_71186_141686" x1="3.3399" y1="0.466506" x2="9.95573" y2="13.4136" gradientUnits="userSpaceOnUse">
<stop stop-color="#F5F5F5" style="stop-color:#F5F5F5;stop-color:color(display-p3 0.9608 0.9608 0.9608);stop-opacity:1;"/>
<stop offset="1" stop-color="#9FA0A2" style="stop-color:#9FA0A2;stop-color:color(display-p3 0.6254 0.6267 0.6333);stop-opacity:1;"/>
</linearGradient>
<linearGradient id="paint7_linear_71186_141686" x1="23.9502" y1="5.30345" x2="24.7894" y2="9.24716" gradientUnits="userSpaceOnUse">
<stop stop-color="#5A5A5A" style="stop-color:#5A5A5A;stop-color:color(display-p3 0.3529 0.3529 0.3529);stop-opacity:1;"/>
<stop offset="1" stop-color="#6F6F6F" style="stop-color:#6F6F6F;stop-color:color(display-p3 0.4333 0.4333 0.4333);stop-opacity:1;"/>
</linearGradient>
<linearGradient id="paint8_linear_71186_141686" x1="28.158" y1="3.86719" x2="28.158" y2="9.81743" gradientUnits="userSpaceOnUse">
<stop stop-color="#5C5C5C" style="stop-color:#5C5C5C;stop-color:color(display-p3 0.3608 0.3608 0.3608);stop-opacity:1;"/>
<stop offset="1" stop-color="#6F6F6F" style="stop-color:#6F6F6F;stop-color:color(display-p3 0.4353 0.4353 0.4353);stop-opacity:1;"/>
</linearGradient>
<clipPath id="clip0_71186_141686">
<rect width="42" height="14" fill="white" style="fill:white;fill-opacity:1;"/>
</clipPath>
</defs>
</svg>
