<svg width="42" height="14" viewBox="0 0 42 14" fill="none" xmlns="http://www.w3.org/2000/svg">
<g clip-path="url(#clip0_71186_141739)">
<path fill-rule="evenodd" clip-rule="evenodd" d="M10.655 13.2223L17.0317 5.84228C17.6447 5.13281 17.6572 4.08618 17.0613 3.36237L14.9334 0.777832H39.6643C41.0445 0.777832 42.1231 1.96929 41.9862 3.34266L40.4329 11.1204C40.314 12.3135 39.3101 13.2223 38.1111 13.2223H10.655Z" fill="url(#paint0_linear_71186_141739)" fill-opacity="0.9" style=""/>
<path d="M40.2422 11.0824L40.2404 11.0917L40.2394 11.1011C40.1304 12.1948 39.2102 13.0278 38.1111 13.0278H11.08L17.1788 5.96941C17.8538 5.18826 17.8675 4.03573 17.2114 3.23878L15.3454 0.972276H39.6643C40.9264 0.972276 41.9133 2.05909 41.7936 3.3141L40.2422 11.0824Z" stroke="url(#paint1_linear_71186_141739)" stroke-opacity="0.8" style="" stroke-width="0.388889"/>
<path d="M0.694845 4.04154L3.52889 0.779942C3.70196 0.58076 3.95003 0.466797 4.21054 0.466797H12.5116C12.7721 0.466797 13.0202 0.580759 13.1933 0.779942L16.0273 4.04154C16.3359 4.39668 16.3343 4.93234 16.0236 5.28553L9.03898 13.2246C8.67669 13.6364 8.04548 13.6364 7.68318 13.2246L0.698599 5.28553C0.387877 4.93234 0.38626 4.39668 0.694845 4.04154Z" fill="url(#paint2_linear_71186_141739)" style=""/>
<mask id="mask0_71186_141739" style="mask-type:alpha" maskUnits="userSpaceOnUse" x="0" y="0" width="17" height="14">
<path d="M0.694845 4.04154L3.52889 0.779942C3.70196 0.58076 3.95003 0.466797 4.21054 0.466797H12.5116C12.7721 0.466797 13.0202 0.580759 13.1933 0.779942L16.0273 4.04154C16.3359 4.39668 16.3343 4.93234 16.0236 5.28553L9.03898 13.2246C8.67669 13.6364 8.04548 13.6364 7.68318 13.2246L0.698599 5.28553C0.387877 4.93234 0.38626 4.39668 0.694845 4.04154Z" fill="white" style="fill:white;fill-opacity:1;"/>
</mask>
<g mask="url(#mask0_71186_141739)">
<path d="M11.1482 0.466797H5.57409L3.71606 5.60013H13.0062L11.1482 0.466797Z" fill="url(#paint3_linear_71186_141739)" style=""/>
<path d="M0 4.6665L3.71605 5.59984L8.36111 13.9998L13.0062 5.59984L16.7222 4.6665V13.9998H8.36111H0V4.6665Z" fill="url(#paint4_linear_71186_141739)" style=""/>
<g opacity="0.4" filter="url(#filter0_f_71186_141739)">
<path d="M4.645 9.3332C4.645 10.8796 3.3972 12.1332 1.85796 12.1332C0.318722 12.1332 -0.929077 10.8796 -0.929077 9.3332C-0.929077 7.78681 0.318722 6.5332 1.85796 6.5332C3.3972 6.5332 4.645 7.78681 4.645 9.3332Z" fill="white" style="fill:white;fill-opacity:1;"/>
</g>
<g opacity="0.8" filter="url(#filter1_f_71186_141739)">
<path d="M18.5802 0.933431C18.5802 2.2221 17.5404 3.26676 16.2577 3.26676C14.975 3.26676 13.9352 2.2221 13.9352 0.933431C13.9352 -0.355233 14.975 -1.3999 16.2577 -1.3999C17.5404 -1.3999 18.5802 -0.355233 18.5802 0.933431Z" fill="white" style="fill:white;fill-opacity:1;"/>
</g>
<path fill-rule="evenodd" clip-rule="evenodd" d="M8.36099 1.3999L7.71073 4.1999H3.25146L4.92369 6.9999H7.15327L5.574 12.5999L8.36103 14.9332L10.2191 6.9999H11.7983H13.6564L8.36099 1.3999Z" fill="url(#paint5_linear_71186_141739)" style=""/>
</g>
<path fill-rule="evenodd" clip-rule="evenodd" d="M0.344943 3.73452L3.17898 0.472918C3.43923 0.173411 3.81435 0 4.21057 0H12.5117C12.9079 0 13.283 0.173411 13.5432 0.472917L13.5432 0.472918L16.3773 3.73452C16.8393 4.26627 16.837 5.06555 16.3716 5.59445L9.38705 13.5335C8.83988 14.1555 7.88235 14.1555 7.33517 13.5335L0.350584 5.59445C-0.114727 5.06555 -0.117098 4.26627 0.344943 3.73452ZM3.52891 0.779812L0.694874 4.04141C0.386289 4.39655 0.387905 4.93221 0.698627 5.2854L7.68321 13.2245C8.0455 13.6363 8.67672 13.6363 9.03901 13.2245L16.0236 5.2854C16.3343 4.93221 16.3359 4.39655 16.0273 4.04141L13.1933 0.779812C13.0202 0.580629 12.7722 0.466667 12.5117 0.466667H4.21057C3.95006 0.466667 3.70199 0.580629 3.52891 0.779812Z" fill="url(#paint6_linear_71186_141739)" style=""/>
<path fill-rule="evenodd" clip-rule="evenodd" d="M24.6458 6.3293H22.2393L22.3716 5.41696H24.4739L24.5598 4.80874H22.4641L22.5897 3.92285H21.8096L21.6774 4.80874H19.5618L19.4759 5.41696H21.5848L21.446 6.3293H19.0858L18.9999 6.93752H21.3601L20.9171 9.87285H21.7303L22.1534 6.93752H24.5598L24.6458 6.3293ZM20.0643 7.32096C19.5949 8.07463 19.1387 8.7093 18.4512 9.53569H19.3635C19.9453 8.78202 20.3882 8.14735 20.8708 7.32096H20.0643ZM23.3103 7.32096H22.5368C22.8872 8.20024 23.1517 8.82168 23.4888 9.53569H24.3681C23.9384 8.76219 23.6144 8.07463 23.3103 7.32096ZM34.0071 5.49626H33.26C33.194 5.30541 33.1289 5.12295 33.0643 4.94201L33.0643 4.94194C32.9477 4.61521 32.8328 4.29342 32.7179 3.93604H33.4121L33.4121 3.93622L33.4122 3.93626C33.584 4.39235 33.7559 4.84847 34.0071 5.49626ZM37.7093 5.35742C38.0068 5.35742 38.1192 5.44337 38.0795 5.75409L37.6696 8.94065H36.6119L36.4201 8.39854H37.0548L37.1209 7.84981H36.321L36.1887 8.83487H35.5078L35.64 7.84981H34.893L34.7343 8.93404H34.0467L34.5624 5.35742H35.7921C35.6532 5.17892 35.5012 4.98059 35.3425 4.76904H36.1094L36.3011 5.00704C36.5259 4.89465 36.7309 4.78226 36.8895 4.65004C36.9226 4.62359 36.9292 4.59715 36.8895 4.59715H34.5955L34.45 4.07487H37.7159C37.8878 4.07487 38.0068 4.12776 37.987 4.26659C37.9671 4.41204 37.8944 4.5707 37.7688 4.65665C37.4184 4.90126 37.0217 5.14587 36.6515 5.35742H37.7093ZM35.9045 5.8797H35.1772L35.1111 6.34248H35.845L35.9045 5.8797ZM37.3589 5.96565C37.3721 5.89292 37.3391 5.8797 37.2796 5.8797H36.5854L36.5259 6.34248H37.3126L37.3589 5.96565ZM33.4187 8.65637C34.093 9.12576 35.1177 9.23815 36.2218 9.23815H37.9804L37.749 9.87281H36.0169C34.9062 9.87942 34.0203 9.75381 33.1212 9.17865C32.9691 9.42987 32.8171 9.67448 32.6782 9.87281H31.8783C32.3146 9.2117 32.7576 8.48448 33.0419 7.9027C33.108 7.55231 33.1741 7.01681 33.2005 6.66642C33.2071 6.58709 33.1939 6.56065 33.1146 6.56065H32.4535L32.546 5.95242H33.5972C33.8682 5.95242 33.9476 6.02515 33.9211 6.30281C33.8682 6.79865 33.7823 7.59198 33.7096 8.09442C33.6302 8.26631 33.5311 8.45804 33.4187 8.65637ZM34.9657 7.34737H35.7061L35.7722 6.84492H35.0384L34.9657 7.34737ZM36.3871 7.34737H37.187L37.2465 6.84492H36.4532L36.3871 7.34737ZM28.2951 6.39528H26.6423L26.1663 9.87272H25.4788L26.2787 4.13428H28.2224C28.586 4.13428 28.619 4.23344 28.5794 4.53756L28.2951 6.39528ZM31.0982 4.13428C31.4155 4.13428 31.4816 4.25328 31.4486 4.51772L30.728 9.87272H29.538L29.3661 9.27772H30.1065L30.5164 6.39528H28.8108L29.1281 4.13428H31.0982ZM27.8455 4.66317H26.8803L26.8274 5.02678H27.872L27.9183 4.7425C27.9249 4.69622 27.905 4.66317 27.8455 4.66317ZM30.6222 4.66317H29.69L29.6371 5.02678H30.7081L30.7412 4.79539C30.7544 4.68961 30.7148 4.66317 30.6222 4.66317ZM26.715 5.86639H27.7464L27.7993 5.50278H26.7679L26.715 5.86639ZM29.5181 5.86639H30.5891L30.642 5.50278H29.571L29.5181 5.86639ZM29.9677 8.38522H29.2669L29.0554 9.75372H28.381L28.5992 8.38522H27.9381C27.7993 8.88106 27.6009 9.33722 27.2902 9.75372H26.5101C26.8737 9.34383 27.1315 8.88106 27.277 8.38522H26.6026L26.682 7.86956H27.4092C27.4489 7.67783 27.4819 7.49933 27.5084 7.32083H26.8935L26.9729 6.80517H30.047L29.9545 7.32083H29.4322L29.3463 7.86956H30.0536L29.9677 8.38522ZM28.0637 7.86956H28.6785L28.7711 7.32083H28.1629C28.1364 7.50594 28.1034 7.68444 28.0637 7.86956Z" fill="url(#paint7_linear_71186_141739)" style=""/>
<path d="M22.2393 6.3293L22.1431 6.31535C22.1391 6.34328 22.1474 6.37159 22.1658 6.39292C22.1843 6.41426 22.2111 6.42652 22.2393 6.42652V6.3293ZM24.6458 6.3293L24.742 6.3429C24.746 6.31502 24.7376 6.2868 24.7192 6.26554C24.7007 6.24428 24.6739 6.23207 24.6458 6.23207V6.3293ZM22.3716 5.41696V5.31974C22.3233 5.31974 22.2823 5.35521 22.2753 5.40302L22.3716 5.41696ZM24.4739 5.41696V5.51418C24.5223 5.51418 24.5634 5.47853 24.5702 5.43057L24.4739 5.41696ZM24.5598 4.80874L24.6561 4.82234C24.66 4.79446 24.6517 4.76624 24.6332 4.74498C24.6148 4.72373 24.588 4.71152 24.5598 4.71152V4.80874ZM22.4641 4.80874L22.3679 4.79509C22.3639 4.82298 22.3722 4.85121 22.3907 4.87248C22.4092 4.89375 22.436 4.90596 22.4641 4.90596V4.80874ZM22.5897 3.92285L22.686 3.9365C22.6899 3.90861 22.6816 3.88038 22.6631 3.85911C22.6447 3.83784 22.6179 3.82563 22.5897 3.82563V3.92285ZM21.8096 3.92285V3.82563C21.7615 3.82563 21.7206 3.86088 21.7135 3.9085L21.8096 3.92285ZM21.6774 4.80874V4.90596C21.7255 4.90596 21.7664 4.87072 21.7736 4.82309L21.6774 4.80874ZM19.5618 4.80874V4.71152C19.5134 4.71152 19.4724 4.74718 19.4656 4.79514L19.5618 4.80874ZM19.4759 5.41696L19.3796 5.40336C19.3757 5.43124 19.384 5.45946 19.4025 5.48072C19.421 5.50198 19.4477 5.51418 19.4759 5.51418V5.41696ZM21.5848 5.41696L21.681 5.43159C21.6852 5.40357 21.677 5.37509 21.6586 5.3536C21.6401 5.3321 21.6132 5.31974 21.5848 5.31974V5.41696ZM21.446 6.3293V6.42652C21.4941 6.42652 21.5349 6.39142 21.5421 6.34392L21.446 6.3293ZM19.0858 6.3293V6.23207C19.0374 6.23207 18.9963 6.26773 18.9896 6.31569L19.0858 6.3293ZM18.9999 6.93752L18.9036 6.92392C18.8997 6.9518 18.908 6.98002 18.9265 7.00127C18.945 7.02253 18.9717 7.03474 18.9999 7.03474V6.93752ZM21.3601 6.93752L21.4562 6.95202C21.4604 6.92402 21.4522 6.89557 21.4338 6.87411C21.4153 6.85264 21.3884 6.8403 21.3601 6.8403V6.93752ZM20.9171 9.87285L20.821 9.85835C20.8168 9.88635 20.8249 9.9148 20.8434 9.93626C20.8619 9.95773 20.8888 9.97007 20.9171 9.97007V9.87285ZM21.7303 9.87285V9.97007C21.7786 9.97007 21.8196 9.93456 21.8265 9.88672L21.7303 9.87285ZM22.1534 6.93752V6.8403C22.1051 6.8403 22.0641 6.87581 22.0572 6.92365L22.1534 6.93752ZM24.5598 6.93752V7.03474C24.6083 7.03474 24.6493 6.99908 24.6561 6.95112L24.5598 6.93752ZM18.4512 9.53569L18.3764 9.4735C18.3523 9.50249 18.3471 9.54281 18.3631 9.57696C18.3792 9.6111 18.4135 9.63291 18.4512 9.63291V9.53569ZM20.0643 7.32096V7.22374C20.0307 7.22374 19.9995 7.24106 19.9818 7.26957L20.0643 7.32096ZM19.3635 9.53569V9.63291C19.3936 9.63291 19.4221 9.61894 19.4405 9.59509L19.3635 9.53569ZM20.8708 7.32096L20.9548 7.36999C20.9724 7.33992 20.9725 7.30276 20.9552 7.27256C20.9378 7.24236 20.9057 7.22374 20.8708 7.22374V7.32096ZM22.5368 7.32096V7.22374C22.5046 7.22374 22.4745 7.23972 22.4564 7.2664C22.4383 7.29309 22.4346 7.327 22.4465 7.35695L22.5368 7.32096ZM23.3103 7.32096L23.4005 7.28458C23.3857 7.24782 23.35 7.22374 23.3103 7.22374V7.32096ZM23.4888 9.53569L23.4009 9.5772C23.417 9.61121 23.4512 9.63291 23.4888 9.63291V9.53569ZM24.3681 9.53569V9.63291C24.4026 9.63291 24.4344 9.61468 24.4519 9.58499C24.4694 9.5553 24.4698 9.51858 24.4531 9.48847L24.3681 9.53569ZM33.26 5.49626L33.1681 5.52802C33.1817 5.5672 33.2186 5.59348 33.26 5.59348V5.49626ZM34.0071 5.49626V5.59348C34.0392 5.59348 34.0692 5.57766 34.0873 5.55119C34.1054 5.52472 34.1093 5.49102 34.0977 5.46111L34.0071 5.49626ZM33.0643 4.94201L33.1559 4.90932L33.1554 4.90801L33.0643 4.94201ZM33.0643 4.94194L32.9727 4.97462L32.9732 4.97593L33.0643 4.94194ZM32.7179 3.93604V3.83881C32.6868 3.83881 32.6576 3.85366 32.6393 3.87877C32.621 3.90387 32.6158 3.93621 32.6253 3.96579L32.7179 3.93604ZM33.4121 3.93604L33.5032 3.90205C33.489 3.86402 33.4527 3.83881 33.4121 3.83881V3.93604ZM33.4121 3.93622L33.5033 3.90232L33.5032 3.90223L33.4121 3.93622ZM33.4122 3.93626L33.321 3.97016L33.3212 3.97054L33.4122 3.93626ZM38.0795 5.75409L38.1759 5.76649L38.176 5.7664L38.0795 5.75409ZM37.6696 8.94065V9.03787C37.7185 9.03787 37.7598 9.00155 37.7661 8.95305L37.6696 8.94065ZM36.6119 8.94065L36.5202 8.97306C36.5339 9.0119 36.5707 9.03787 36.6119 9.03787V8.94065ZM36.4201 8.39854V8.30131C36.3886 8.30131 36.359 8.31664 36.3407 8.34241C36.3225 8.36818 36.3179 8.40119 36.3285 8.43095L36.4201 8.39854ZM37.0548 8.39854V8.49576C37.104 8.49576 37.1454 8.45901 37.1513 8.41016L37.0548 8.39854ZM37.1209 7.84981L37.2174 7.86144C37.2208 7.83383 37.2121 7.80612 37.1936 7.78531C37.1752 7.7645 37.1487 7.75259 37.1209 7.75259V7.84981ZM36.321 7.84981V7.75259C36.2723 7.75259 36.2311 7.78862 36.2246 7.83688L36.321 7.84981ZM36.1887 8.83487V8.93209C36.2374 8.93209 36.2786 8.89607 36.2851 8.8478L36.1887 8.83487ZM35.5078 8.83487L35.4114 8.82193C35.4077 8.84973 35.4162 8.87777 35.4346 8.89888C35.4531 8.91998 35.4798 8.93209 35.5078 8.93209V8.83487ZM35.64 7.84981L35.7364 7.86275C35.7401 7.83496 35.7317 7.80691 35.7132 7.7858C35.6947 7.7647 35.6681 7.75259 35.64 7.75259V7.84981ZM34.893 7.84981V7.75259C34.8447 7.75259 34.8038 7.78799 34.7968 7.83574L34.893 7.84981ZM34.7343 8.93404V9.03126C34.7826 9.03126 34.8235 8.99586 34.8305 8.94811L34.7343 8.93404ZM34.0467 8.93404L33.9505 8.92016C33.9465 8.94808 33.9548 8.97637 33.9733 8.99769C33.9917 9.01901 34.0185 9.03126 34.0467 9.03126V8.93404ZM34.5624 5.35742V5.2602C34.5141 5.2602 34.4731 5.29571 34.4662 5.34355L34.5624 5.35742ZM35.7921 5.35742V5.45465C35.8292 5.45465 35.8631 5.4335 35.8794 5.40014C35.8957 5.36678 35.8916 5.32705 35.8688 5.29774L35.7921 5.35742ZM35.3425 4.76904V4.67181C35.3057 4.67181 35.272 4.69262 35.2556 4.72556C35.2391 4.75849 35.2426 4.79791 35.2647 4.82737L35.3425 4.76904ZM36.1094 4.76904L36.1851 4.70804C36.1667 4.68513 36.1388 4.67181 36.1094 4.67181V4.76904ZM36.3011 5.00704L36.2254 5.06803C36.2541 5.10363 36.3037 5.11444 36.3446 5.09399L36.3011 5.00704ZM36.8895 4.65004L36.8288 4.5741L36.8273 4.57535L36.8895 4.65004ZM34.5955 4.59715L34.5018 4.62323C34.5135 4.66528 34.5518 4.69437 34.5955 4.69437V4.59715ZM34.45 4.07487V3.97765C34.4196 3.97765 34.391 3.99186 34.3726 4.01606C34.3542 4.04026 34.3482 4.07167 34.3564 4.10095L34.45 4.07487ZM37.987 4.26659L37.8907 4.25284L37.8906 4.25346L37.987 4.26659ZM37.7688 4.65665L37.7139 4.5764L37.7131 4.57693L37.7688 4.65665ZM36.6515 5.35742L36.6033 5.27301C36.565 5.29488 36.5462 5.33977 36.5576 5.38238C36.5689 5.42499 36.6074 5.45465 36.6515 5.45465V5.35742ZM35.1772 5.8797V5.78248C35.1289 5.78248 35.0878 5.81806 35.081 5.86595L35.1772 5.8797ZM35.9045 5.8797L36.0009 5.8921C36.0045 5.86438 35.9959 5.83647 35.9775 5.81549C35.959 5.79451 35.9324 5.78248 35.9045 5.78248V5.8797ZM35.1111 6.34248L35.0149 6.32873C35.0109 6.35663 35.0192 6.38489 35.0377 6.40618C35.0561 6.42747 35.0829 6.4397 35.1111 6.4397V6.34248ZM35.845 6.34248V6.4397C35.8939 6.4397 35.9352 6.40338 35.9414 6.35488L35.845 6.34248ZM37.3589 5.96565L37.2631 5.94822L37.2624 5.9538L37.3589 5.96565ZM36.5854 5.8797V5.78248C36.5365 5.78248 36.4952 5.8188 36.489 5.8673L36.5854 5.8797ZM36.5259 6.34248L36.4295 6.33008C36.4259 6.3578 36.4345 6.38571 36.4529 6.40669C36.4714 6.42768 36.498 6.4397 36.5259 6.4397V6.34248ZM37.3126 6.34248V6.4397C37.3617 6.4397 37.4031 6.40308 37.4091 6.35433L37.3126 6.34248ZM33.4187 8.65637L33.3341 8.60844C33.3093 8.65212 33.3219 8.70748 33.3631 8.73616L33.4187 8.65637ZM37.9804 9.23815L38.0717 9.27145C38.0826 9.24164 38.0782 9.2084 38.06 9.1824C38.0418 9.15641 38.0121 9.14092 37.9804 9.14092V9.23815ZM37.749 9.87281V9.97004C37.7898 9.97004 37.8263 9.9445 37.8403 9.90611L37.749 9.87281ZM36.0169 9.87281V9.77559L36.0163 9.77559L36.0169 9.87281ZM33.1212 9.17865L33.1736 9.09675C33.1515 9.08263 33.1247 9.07802 33.0991 9.08396C33.0736 9.0899 33.0516 9.10589 33.038 9.1283L33.1212 9.17865ZM32.6782 9.87281V9.97004C32.71 9.97004 32.7397 9.95456 32.7579 9.92857L32.6782 9.87281ZM31.8783 9.87281L31.7972 9.81926C31.7774 9.84912 31.7757 9.88738 31.7927 9.91889C31.8096 9.95039 31.8425 9.97004 31.8783 9.97004V9.87281ZM33.0419 7.9027L33.1292 7.94539C33.133 7.93757 33.1358 7.92928 33.1374 7.92073L33.0419 7.9027ZM33.2005 6.66642L33.1036 6.65835L33.1036 6.65911L33.2005 6.66642ZM32.4535 6.56065L32.3573 6.54602C32.3531 6.57404 32.3613 6.60252 32.3797 6.62401C32.3982 6.6455 32.4251 6.65787 32.4535 6.65787V6.56065ZM32.546 5.95242V5.8552C32.498 5.8552 32.4571 5.8903 32.4499 5.9378L32.546 5.95242ZM33.9211 6.30281L34.0178 6.31313L34.0179 6.31203L33.9211 6.30281ZM33.7096 8.09442L33.7978 8.13517C33.8018 8.12666 33.8045 8.11763 33.8058 8.10835L33.7096 8.09442ZM35.7061 7.34737V7.44459C35.7549 7.44459 35.7962 7.40843 35.8025 7.36005L35.7061 7.34737ZM34.9657 7.34737L34.8695 7.33344C34.8654 7.36137 34.8737 7.38967 34.8922 7.411C34.9106 7.43233 34.9375 7.44459 34.9657 7.44459V7.34737ZM35.7722 6.84492L35.8686 6.85761C35.8723 6.82985 35.8638 6.80187 35.8453 6.78082C35.8269 6.75977 35.8002 6.7477 35.7722 6.7477V6.84492ZM35.0384 6.84492V6.7477C34.9901 6.7477 34.9491 6.78318 34.9422 6.831L35.0384 6.84492ZM37.187 7.34737V7.44459C37.2363 7.44459 37.2778 7.40773 37.2836 7.3588L37.187 7.34737ZM36.3871 7.34737L36.2907 7.33469C36.287 7.36244 36.2955 7.39043 36.314 7.41147C36.3324 7.43252 36.3591 7.44459 36.3871 7.44459V7.34737ZM37.2465 6.84492L37.3431 6.85636C37.3463 6.82877 37.3376 6.80111 37.3192 6.78035C37.3007 6.75958 37.2743 6.7477 37.2465 6.7477V6.84492ZM36.4532 6.84492V6.7477C36.4044 6.7477 36.3632 6.78387 36.3568 6.83224L36.4532 6.84492ZM26.6423 6.39528V6.29806C26.5937 6.29806 26.5526 6.33394 26.546 6.38209L26.6423 6.39528ZM28.2951 6.39528V6.4925C28.3431 6.4925 28.3839 6.45745 28.3912 6.40998L28.2951 6.39528ZM26.1663 9.87272V9.96994C26.2149 9.96994 26.256 9.93406 26.2626 9.88591L26.1663 9.87272ZM25.4788 9.87272L25.3825 9.8593C25.3786 9.88716 25.387 9.91533 25.4054 9.93655C25.4239 9.95776 25.4506 9.96994 25.4788 9.96994V9.87272ZM26.2787 4.13428V4.03706C26.2302 4.03706 26.1891 4.07281 26.1824 4.12085L26.2787 4.13428ZM28.5794 4.53756L28.6755 4.55227L28.6758 4.55013L28.5794 4.53756ZM31.4486 4.51772L31.545 4.53069L31.5451 4.52978L31.4486 4.51772ZM30.728 9.87272V9.96994C30.7767 9.96994 30.8178 9.93394 30.8243 9.88569L30.728 9.87272ZM29.538 9.87272L29.4446 9.89971C29.4566 9.94131 29.4947 9.96994 29.538 9.96994V9.87272ZM29.3661 9.27772V9.1805C29.3355 9.1805 29.3068 9.19487 29.2884 9.21929C29.27 9.24371 29.2642 9.27535 29.2727 9.30471L29.3661 9.27772ZM30.1065 9.27772V9.37494C30.1549 9.37494 30.196 9.33933 30.2028 9.29141L30.1065 9.27772ZM30.5164 6.39528L30.6127 6.40896C30.6166 6.38107 30.6083 6.35283 30.5899 6.33155C30.5714 6.31028 30.5446 6.29806 30.5164 6.29806V6.39528ZM28.8108 6.39528L28.7145 6.38176C28.7106 6.40963 28.7189 6.43783 28.7374 6.45907C28.7559 6.48031 28.7826 6.4925 28.8108 6.4925V6.39528ZM29.1281 4.13428V4.03706C29.0796 4.03706 29.0386 4.07276 29.0318 4.12076L29.1281 4.13428ZM26.8803 4.66317V4.56594C26.832 4.56594 26.7911 4.60139 26.7841 4.64917L26.8803 4.66317ZM26.8274 5.02678L26.7312 5.01278C26.7272 5.04072 26.7354 5.06904 26.7539 5.09038C26.7724 5.11173 26.7992 5.124 26.8274 5.124V5.02678ZM27.872 5.02678V5.124C27.9196 5.124 27.9603 5.08944 27.9679 5.0424L27.872 5.02678ZM27.9183 4.7425L28.0142 4.75812L28.0145 4.75625L27.9183 4.7425ZM29.69 4.66317V4.56594C29.6417 4.56594 29.6008 4.60139 29.5938 4.64917L29.69 4.66317ZM29.6371 5.02678L29.5409 5.01278C29.5369 5.04072 29.5452 5.06904 29.5636 5.09038C29.5821 5.11173 29.6089 5.124 29.6371 5.124V5.02678ZM30.7081 5.02678V5.124C30.7565 5.124 30.7976 5.08842 30.8044 5.04053L30.7081 5.02678ZM30.7412 4.79539L30.8375 4.80914L30.8377 4.80745L30.7412 4.79539ZM27.7464 5.86639V5.96361C27.7947 5.96361 27.8356 5.92817 27.8426 5.88038L27.7464 5.86639ZM26.715 5.86639L26.6188 5.85239C26.6148 5.88033 26.623 5.90865 26.6415 5.93C26.66 5.95134 26.6868 5.96361 26.715 5.96361V5.86639ZM27.7993 5.50278L27.8955 5.51677C27.8995 5.48884 27.8913 5.46052 27.8728 5.43917C27.8543 5.41782 27.8275 5.40556 27.7993 5.40556V5.50278ZM26.7679 5.50278V5.40556C26.7196 5.40556 26.6787 5.441 26.6717 5.48878L26.7679 5.50278ZM30.5891 5.86639V5.96361C30.6374 5.96361 30.6784 5.92817 30.6854 5.88038L30.5891 5.86639ZM29.5181 5.86639L29.4219 5.85239C29.4179 5.88033 29.4262 5.90865 29.4446 5.93C29.4631 5.95134 29.4899 5.96361 29.5181 5.96361V5.86639ZM30.642 5.50278L30.7382 5.51677C30.7423 5.48884 30.734 5.46052 30.7156 5.43917C30.6971 5.41782 30.6703 5.40556 30.642 5.40556V5.50278ZM29.571 5.50278V5.40556C29.5227 5.40556 29.4818 5.441 29.4748 5.48878L29.571 5.50278ZM29.2669 8.38522V8.288C29.219 8.288 29.1782 8.32297 29.1708 8.37037L29.2669 8.38522ZM29.9677 8.38522V8.48244C30.0152 8.48244 30.0558 8.44808 30.0636 8.40121L29.9677 8.38522ZM29.0554 9.75372V9.85094C29.1033 9.85094 29.1441 9.81597 29.1515 9.76858L29.0554 9.75372ZM28.381 9.75372L28.285 9.73842C28.2805 9.76652 28.2886 9.79518 28.3071 9.81683C28.3255 9.83848 28.3526 9.85094 28.381 9.85094V9.75372ZM28.5992 8.38522L28.6952 8.40053C28.6997 8.37242 28.6916 8.34377 28.6732 8.32212C28.6547 8.30047 28.6277 8.288 28.5992 8.288V8.38522ZM27.9381 8.38522V8.288C27.8945 8.288 27.8562 8.31702 27.8445 8.35901L27.9381 8.38522ZM27.2902 9.75372V9.85094C27.3209 9.85094 27.3498 9.83646 27.3681 9.81186L27.2902 9.75372ZM26.5101 9.75372L26.4374 9.6892C26.412 9.71783 26.4057 9.75869 26.4214 9.79359C26.4371 9.8285 26.4718 9.85094 26.5101 9.85094V9.75372ZM27.277 8.38522L27.3703 8.41259C27.3789 8.3832 27.3732 8.35147 27.3548 8.32695C27.3364 8.30243 27.3076 8.288 27.277 8.288V8.38522ZM26.6026 8.38522L26.5066 8.37044C26.5022 8.39848 26.5104 8.427 26.5289 8.44853C26.5473 8.47006 26.5743 8.48244 26.6026 8.48244V8.38522ZM26.682 7.86956V7.77233C26.634 7.77233 26.5932 7.80734 26.5859 7.85477L26.682 7.86956ZM27.4092 7.86956V7.96678C27.4553 7.96678 27.4951 7.9344 27.5044 7.88925L27.4092 7.86956ZM27.5084 7.32083L27.6045 7.33508C27.6087 7.30711 27.6005 7.27873 27.582 7.25732C27.5635 7.23592 27.5366 7.22361 27.5084 7.22361V7.32083ZM26.8935 7.32083L26.7974 7.30605C26.7931 7.33409 26.8013 7.36261 26.8197 7.38414C26.8382 7.40567 26.8652 7.41806 26.8935 7.41806V7.32083ZM26.9729 6.80517V6.70794C26.9249 6.70794 26.8841 6.74295 26.8768 6.79038L26.9729 6.80517ZM30.047 6.80517L30.1427 6.82234C30.1478 6.794 30.1401 6.76487 30.1216 6.74279C30.1031 6.7207 30.0758 6.70794 30.047 6.70794V6.80517ZM29.9545 7.32083V7.41806C30.0015 7.41806 30.0419 7.38434 30.0502 7.33801L29.9545 7.32083ZM29.4322 7.32083V7.22361C29.3843 7.22361 29.3436 7.25848 29.3362 7.30579L29.4322 7.32083ZM29.3463 7.86956L29.2502 7.85451C29.2458 7.88258 29.2539 7.91117 29.2724 7.93276C29.2909 7.95435 29.3178 7.96678 29.3463 7.96678V7.86956ZM30.0536 7.86956L30.1495 7.88554C30.1542 7.85735 30.1463 7.82852 30.1278 7.80671C30.1094 7.78491 30.0822 7.77233 30.0536 7.77233V7.86956ZM28.6785 7.86956V7.96678C28.726 7.96678 28.7665 7.93252 28.7744 7.88573L28.6785 7.86956ZM28.0637 7.86956L27.9686 7.84918C27.9625 7.87789 27.9696 7.90784 27.9881 7.93068C28.0066 7.95351 28.0343 7.96678 28.0637 7.96678V7.86956ZM28.7711 7.32083L28.867 7.337C28.8717 7.30879 28.8638 7.27991 28.8453 7.25806C28.8269 7.23621 28.7997 7.22361 28.7711 7.22361V7.32083ZM28.1629 7.32083V7.22361C28.1145 7.22361 28.0735 7.25919 28.0666 7.30708L28.1629 7.32083ZM22.2393 6.42652H24.6458V6.23207H22.2393V6.42652ZM22.2753 5.40302L22.1431 6.31535L22.3356 6.34324L22.4678 5.43091L22.2753 5.40302ZM24.4739 5.31974H22.3716V5.51418H24.4739V5.31974ZM24.4636 4.79514L24.3776 5.40336L24.5702 5.43057L24.6561 4.82234L24.4636 4.79514ZM22.4641 4.90596H24.5598V4.71152H22.4641V4.90596ZM22.4935 3.9092L22.3679 4.79509L22.5604 4.82239L22.686 3.9365L22.4935 3.9092ZM21.8096 4.02007H22.5897V3.82563H21.8096V4.02007ZM21.7736 4.82309L21.9058 3.9372L21.7135 3.9085L21.5812 4.79439L21.7736 4.82309ZM19.5618 4.90596H21.6774V4.71152H19.5618V4.90596ZM19.5722 5.43057L19.6581 4.82234L19.4656 4.79514L19.3796 5.40336L19.5722 5.43057ZM21.5848 5.31974H19.4759V5.51418H21.5848V5.31974ZM21.5421 6.34392L21.681 5.43159L21.4887 5.40234L21.3499 6.31467L21.5421 6.34392ZM19.0858 6.42652H21.446V6.23207H19.0858V6.42652ZM19.0962 6.95112L19.1821 6.3429L18.9896 6.31569L18.9036 6.92392L19.0962 6.95112ZM21.3601 6.8403H18.9999V7.03474H21.3601V6.8403ZM21.0133 9.88736L21.4562 6.95202L21.2639 6.92301L20.821 9.85835L21.0133 9.88736ZM21.7303 9.77563H20.9171V9.97007H21.7303V9.77563ZM22.0572 6.92365L21.6341 9.85898L21.8265 9.88672L22.2496 6.95139L22.0572 6.92365ZM24.5598 6.8403H22.1534V7.03474H24.5598V6.8403ZM24.5495 6.31569L24.4636 6.92392L24.6561 6.95112L24.742 6.3429L24.5495 6.31569ZM18.5259 9.59787C19.2161 8.76833 19.6749 8.13008 20.1468 7.37236L19.9818 7.26957C19.5149 8.01918 19.0614 8.65026 18.3764 9.4735L18.5259 9.59787ZM19.3635 9.43846H18.4512V9.63291H19.3635V9.43846ZM20.7869 7.27193C20.3068 8.09395 19.8664 8.72513 19.2865 9.47628L19.4405 9.59509C20.0242 8.83891 20.4696 8.20075 20.9548 7.36999L20.7869 7.27193ZM20.0643 7.41818H20.8708V7.22374H20.0643V7.41818ZM22.5368 7.41818H23.3103V7.22374H22.5368V7.41818ZM23.5768 9.49417C23.2407 8.78253 22.9771 8.16304 22.6272 7.28497L22.4465 7.35695C22.7974 8.23744 23.0626 8.86084 23.4009 9.5772L23.5768 9.49417ZM24.3681 9.43846H23.4888V9.63291H24.3681V9.43846ZM23.2202 7.35734C23.5257 8.1146 23.8514 8.80579 24.2831 9.5829L24.4531 9.48847C24.0254 8.71858 23.7032 8.03465 23.4005 7.28458L23.2202 7.35734ZM33.26 5.59348H34.0071V5.39904H33.26V5.59348ZM32.9728 4.9747C33.0374 5.1557 33.1023 5.3377 33.1681 5.52802L33.3519 5.46449C33.2857 5.27311 33.2205 5.0902 33.1559 4.90933L32.9728 4.9747ZM32.9732 4.97593L32.9732 4.97601L33.1554 4.90801L33.1554 4.90794L32.9732 4.97593ZM32.6253 3.96579C32.7408 4.32486 32.8561 4.64804 32.9727 4.97462L33.1559 4.90925C33.0392 4.58238 32.9248 4.26198 32.8105 3.90628L32.6253 3.96579ZM33.4121 3.83881H32.7179V4.03326H33.4121V3.83881ZM33.5032 3.90223L33.5032 3.90205L33.321 3.97002L33.3211 3.97021L33.5032 3.90223ZM33.5033 3.90235L33.5033 3.90232L33.321 3.97012L33.321 3.97016L33.5033 3.90235ZM34.0977 5.46111C33.8467 4.81378 33.675 4.35802 33.5031 3.90198L33.3212 3.97054C33.4931 4.42668 33.6651 4.88317 33.9164 5.53141L34.0977 5.46111ZM38.176 5.7664C38.1966 5.60508 38.1838 5.46471 38.0896 5.37049C37.999 5.27991 37.8594 5.2602 37.7093 5.2602V5.45465C37.8567 5.45465 37.922 5.47791 37.9521 5.50798C37.9785 5.53441 38.0021 5.59238 37.9831 5.74178L38.176 5.7664ZM37.7661 8.95305L38.1759 5.76649L37.9831 5.74169L37.5732 8.92824L37.7661 8.95305ZM36.6119 9.03787H37.6696V8.84342H36.6119V9.03787ZM36.3285 8.43095L36.5202 8.97306L36.7035 8.90823L36.5118 8.36612L36.3285 8.43095ZM37.0548 8.30131H36.4201V8.49576H37.0548V8.30131ZM37.0244 7.83818L36.9583 8.38691L37.1513 8.41016L37.2174 7.86144L37.0244 7.83818ZM36.321 7.94704H37.1209V7.75259H36.321V7.94704ZM36.2851 8.8478L36.4173 7.86275L36.2246 7.83688L36.0924 8.82193L36.2851 8.8478ZM35.5078 8.93209H36.1887V8.73765H35.5078V8.93209ZM35.5437 7.83688L35.4114 8.82193L35.6042 8.8478L35.7364 7.86275L35.5437 7.83688ZM34.893 7.94704H35.64V7.75259H34.893V7.94704ZM34.8305 8.94811L34.9892 7.86389L34.7968 7.83574L34.6381 8.91996L34.8305 8.94811ZM34.0467 9.03126H34.7343V8.83681H34.0467V9.03126ZM34.4662 5.34355L33.9505 8.92016L34.143 8.94791L34.6586 5.3713L34.4662 5.34355ZM35.7921 5.2602H34.5624V5.45465H35.7921V5.2602ZM35.2647 4.82737C35.4238 5.03944 35.5762 5.23822 35.7153 5.41711L35.8688 5.29774C35.7303 5.11962 35.5786 4.92174 35.4203 4.7107L35.2647 4.82737ZM36.1094 4.67181H35.3425V4.86626H36.1094V4.67181ZM36.3768 4.94604L36.1851 4.70804L36.0337 4.83003L36.2254 5.06803L36.3768 4.94604ZM36.8273 4.57535C36.678 4.69974 36.482 4.80791 36.2577 4.92008L36.3446 5.09399C36.5698 4.98138 36.7837 4.86477 36.9518 4.72472L36.8273 4.57535ZM36.8895 4.69437C36.8894 4.69437 36.8864 4.69438 36.8815 4.69332C36.8768 4.69229 36.8679 4.68973 36.8578 4.68316C36.8471 4.67619 36.8357 4.66505 36.828 4.64903C36.8204 4.63314 36.8189 4.61765 36.8199 4.6056C36.8217 4.58438 36.831 4.57263 36.8313 4.57228C36.8328 4.57021 36.8326 4.57109 36.8288 4.57412L36.9503 4.72595C36.963 4.71576 36.976 4.70341 36.9868 4.68895C36.9964 4.6762 37.0111 4.65288 37.0137 4.62175C37.017 4.58222 36.9993 4.54321 36.964 4.52022C36.9364 4.50229 36.9071 4.49992 36.8895 4.49992V4.69437ZM34.5955 4.69437H36.8895V4.49992H34.5955V4.69437ZM34.3564 4.10095L34.5018 4.62323L34.6891 4.57106L34.5437 4.04879L34.3564 4.10095ZM37.7159 3.97765H34.45V4.17209H37.7159V3.97765ZM38.0832 4.28034C38.0902 4.2311 38.0858 4.18251 38.0658 4.13806C38.0456 4.0934 38.0128 4.06005 37.975 4.0363C37.9029 3.99113 37.808 3.97765 37.7159 3.97765V4.17209C37.7957 4.17209 37.8462 4.18506 37.8717 4.20103C37.8826 4.20786 37.8866 4.21376 37.8885 4.21807C37.8906 4.22258 37.8936 4.23267 37.8907 4.25284L38.0832 4.28034ZM37.8237 4.73688C37.9791 4.63056 38.0611 4.44248 38.0833 4.27973L37.8906 4.25346C37.8732 4.38159 37.8097 4.51084 37.7139 4.57641L37.8237 4.73688ZM36.6998 5.44184C37.0718 5.22925 37.4711 4.98307 37.8244 4.73636L37.7131 4.57693C37.3658 4.81944 36.9717 5.06249 36.6033 5.27301L36.6998 5.44184ZM37.7093 5.2602H36.6515V5.45465H37.7093V5.2602ZM35.1772 5.97692H35.9045V5.78248H35.1772V5.97692ZM35.2074 6.35623L35.2735 5.89345L35.081 5.86595L35.0149 6.32873L35.2074 6.35623ZM35.845 6.24526H35.1111V6.4397H35.845V6.24526ZM35.808 5.8673L35.7485 6.33008L35.9414 6.35488L36.0009 5.8921L35.808 5.8673ZM37.2796 5.97692C37.2918 5.97692 37.2972 5.97769 37.2989 5.97803C37.3003 5.97834 37.292 5.97697 37.2822 5.9683C37.2771 5.96385 37.2729 5.95849 37.2698 5.95271C37.2667 5.94709 37.2654 5.94236 37.2649 5.93961C37.2641 5.93504 37.2654 5.93652 37.2633 5.94825L37.4546 5.98304C37.4629 5.93742 37.4646 5.86998 37.4108 5.8225C37.3664 5.78326 37.3075 5.78248 37.2796 5.78248V5.97692ZM36.5854 5.97692H37.2796V5.78248H36.5854V5.97692ZM36.6223 6.35488L36.6818 5.8921L36.489 5.8673L36.4295 6.33008L36.6223 6.35488ZM37.3126 6.24526H36.5259V6.4397H37.3126V6.24526ZM37.2624 5.9538L37.2161 6.33063L37.4091 6.35433L37.4554 5.9775L37.2624 5.9538ZM36.2218 9.14092C35.1173 9.14092 34.1212 9.02689 33.4742 8.57657L33.3631 8.73616C34.0649 9.22463 35.1181 9.33537 36.2218 9.33537V9.14092ZM37.9804 9.14092H36.2218V9.33537H37.9804V9.14092ZM37.8403 9.90611L38.0717 9.27145L37.889 9.20484L37.6576 9.83951L37.8403 9.90611ZM36.0169 9.97004H37.749V9.77559H36.0169V9.97004ZM33.0688 9.26054C33.9906 9.85021 34.8983 9.9767 36.0174 9.97003L36.0163 9.77559C34.9141 9.78215 34.05 9.65742 33.1736 9.09675L33.0688 9.26054ZM32.7579 9.92857C32.8987 9.72738 33.0522 9.48039 33.2044 9.22899L33.038 9.1283C32.8861 9.37935 32.7354 9.62158 32.5986 9.81706L32.7579 9.92857ZM31.8783 9.97004H32.6782V9.77559H31.8783V9.97004ZM32.9545 7.86002C32.6729 8.43622 32.2327 9.15938 31.7972 9.81926L31.9594 9.92637C32.3966 9.26402 32.8422 8.53274 33.1292 7.94539L32.9545 7.86002ZM33.1036 6.65911C33.0773 7.00654 33.0116 7.5384 32.9463 7.88468L33.1374 7.92073C33.2043 7.56622 33.2708 7.02709 33.2975 6.67374L33.1036 6.65911ZM33.1146 6.65787C33.1219 6.65787 33.1271 6.65818 33.1306 6.65857C33.1342 6.65896 33.1351 6.65934 33.1342 6.65908C33.1333 6.65878 33.1299 6.65764 33.1254 6.65473C33.1207 6.65166 33.116 6.64742 33.112 6.64212C33.1042 6.63166 33.104 6.62364 33.1044 6.6274C33.1046 6.62905 33.1048 6.6323 33.1048 6.63774C33.1047 6.64315 33.1043 6.64988 33.1036 6.65835L33.2974 6.6745C33.2992 6.65263 33.3003 6.62861 33.2976 6.60545C33.295 6.58195 33.2878 6.55244 33.2676 6.52545C33.2246 6.46818 33.1562 6.46342 33.1146 6.46342V6.65787ZM32.4535 6.65787H33.1146V6.46342H32.4535V6.65787ZM32.4499 5.9378L32.3573 6.54602L32.5496 6.57527L32.6421 5.96705L32.4499 5.9378ZM33.5972 5.8552H32.546V6.04965H33.5972V5.8552ZM34.0179 6.31203C34.0312 6.172 34.024 6.04335 33.9411 5.95642C33.8596 5.87091 33.7322 5.8552 33.5972 5.8552V6.04965C33.7333 6.04965 33.781 6.0703 33.8003 6.09057C33.8183 6.10941 33.8375 6.15596 33.8243 6.2936L34.0179 6.31203ZM33.8058 8.10835C33.8788 7.60374 33.965 6.80845 34.0178 6.31312L33.8245 6.2925C33.7715 6.78884 33.6858 7.58022 33.6134 8.0805L33.8058 8.10835ZM33.5033 8.7043C33.6167 8.50405 33.7172 8.30991 33.7978 8.13517L33.6213 8.05368C33.5433 8.22272 33.4454 8.41202 33.3341 8.60844L33.5033 8.7043ZM35.7061 7.25015H34.9657V7.44459H35.7061V7.25015ZM35.6758 6.83224L35.6097 7.33469L35.8025 7.36005L35.8686 6.85761L35.6758 6.83224ZM35.0384 6.94215H35.7722V6.7477H35.0384V6.94215ZM35.0619 7.3613L35.1346 6.85885L34.9422 6.831L34.8695 7.33344L35.0619 7.3613ZM37.187 7.25015H36.3871V7.44459H37.187V7.25015ZM37.15 6.83349L37.0905 7.33594L37.2836 7.3588L37.3431 6.85636L37.15 6.83349ZM36.4532 6.94215H37.2465V6.7477H36.4532V6.94215ZM36.4835 7.36005L36.5496 6.85761L36.3568 6.83224L36.2907 7.33469L36.4835 7.36005ZM26.6423 6.4925H28.2951V6.29806H26.6423V6.4925ZM26.2626 9.88591L26.7386 6.40846L26.546 6.38209L26.07 9.85954L26.2626 9.88591ZM25.4788 9.96994H26.1663V9.7755H25.4788V9.96994ZM26.1824 4.12085L25.3825 9.8593L25.5751 9.88615L26.375 4.1477L26.1824 4.12085ZM28.2224 4.03706H26.2787V4.2315H28.2224V4.03706ZM28.6758 4.55013C28.6858 4.47318 28.6923 4.40219 28.6885 4.34028C28.6846 4.27773 28.6698 4.21497 28.6289 4.16226C28.5873 4.10872 28.5286 4.07799 28.4618 4.06048C28.3962 4.0433 28.3163 4.03706 28.2224 4.03706V4.2315C28.3103 4.2315 28.3708 4.23765 28.4125 4.24857C28.4529 4.25915 28.4681 4.27222 28.4753 4.28149C28.4831 4.29159 28.4919 4.31063 28.4944 4.35222C28.497 4.39443 28.4928 4.44987 28.483 4.52498L28.6758 4.55013ZM28.3912 6.40998L28.6755 4.55226L28.4833 4.52285L28.199 6.38057L28.3912 6.40998ZM31.5451 4.52978C31.5618 4.39553 31.56 4.26168 31.4796 4.16479C31.398 4.06628 31.262 4.03706 31.0982 4.03706V4.2315C31.2517 4.2315 31.3075 4.26177 31.3299 4.28888C31.3537 4.31759 31.3684 4.37547 31.3521 4.50566L31.5451 4.52978ZM30.8243 9.88569L31.5449 4.53069L31.3522 4.50476L30.6316 9.85976L30.8243 9.88569ZM29.538 9.96994H30.728V9.7755H29.538V9.96994ZM29.2727 9.30471L29.4446 9.89971L29.6314 9.84574L29.4595 9.25074L29.2727 9.30471ZM30.1065 9.1805H29.3661V9.37494H30.1065V9.1805ZM30.4202 6.38159L30.0103 9.26403L30.2028 9.29141L30.6127 6.40896L30.4202 6.38159ZM28.8108 6.4925H30.5164V6.29806H28.8108V6.4925ZM29.0318 4.12076L28.7145 6.38176L28.907 6.40879L29.2244 4.14779L29.0318 4.12076ZM31.0982 4.03706H29.1281V4.2315H31.0982V4.03706ZM26.8803 4.76039H27.8455V4.56594H26.8803V4.76039ZM26.9236 5.04077L26.9765 4.67716L26.7841 4.64917L26.7312 5.01278L26.9236 5.04077ZM27.872 4.92956H26.8274V5.124H27.872V4.92956ZM27.8223 4.72688L27.776 5.01116L27.9679 5.0424L28.0142 4.75812L27.8223 4.72688ZM27.8455 4.76039C27.8518 4.76039 27.852 4.7613 27.8486 4.76001C27.8446 4.75848 27.8378 4.75471 27.8316 4.74728C27.8191 4.73209 27.8233 4.72005 27.822 4.72875L28.0145 4.75625C28.0199 4.71868 28.0174 4.66696 27.9817 4.62367C27.945 4.57911 27.8919 4.56594 27.8455 4.56594V4.76039ZM29.69 4.76039H30.6222V4.56594H29.69V4.76039ZM29.7334 5.04077L29.7862 4.67716L29.5938 4.64917L29.5409 5.01278L29.7334 5.04077ZM30.7081 4.92956H29.6371V5.124H30.7081V4.92956ZM30.645 4.78164L30.6119 5.01303L30.8044 5.04053L30.8375 4.80914L30.645 4.78164ZM30.6222 4.76039C30.6416 4.76039 30.6526 4.76188 30.6581 4.76327C30.663 4.76449 30.6586 4.76436 30.6526 4.75836C30.6461 4.75181 30.6453 4.746 30.6457 4.7483C30.6464 4.75198 30.6474 4.76238 30.6447 4.78333L30.8377 4.80745C30.8451 4.74805 30.8435 4.67427 30.7901 4.62086C30.7401 4.5708 30.6699 4.56594 30.6222 4.56594V4.76039ZM27.7464 5.76917H26.715V5.96361H27.7464V5.76917ZM27.703 5.48878L27.6502 5.85239L27.8426 5.88038L27.8955 5.51677L27.703 5.48878ZM26.7679 5.6H27.7993V5.40556H26.7679V5.6ZM26.8112 5.88038L26.8641 5.51677L26.6717 5.48878L26.6188 5.85239L26.8112 5.88038ZM30.5891 5.76917H29.5181V5.96361H30.5891V5.76917ZM30.5458 5.48878L30.4929 5.85239L30.6854 5.88038L30.7382 5.51677L30.5458 5.48878ZM29.571 5.6H30.642V5.40556H29.571V5.6ZM29.6144 5.88038L29.6672 5.51677L29.4748 5.48878L29.4219 5.85239L29.6144 5.88038ZM29.2669 8.48244H29.9677V8.288H29.2669V8.48244ZM29.1515 9.76858L29.363 8.40008L29.1708 8.37037L28.9593 9.73887L29.1515 9.76858ZM28.381 9.85094H29.0554V9.6565H28.381V9.85094ZM28.5032 8.36992L28.285 9.73842L28.477 9.76903L28.6952 8.40053L28.5032 8.36992ZM27.9381 8.48244H28.5992V8.288H27.9381V8.48244ZM27.3681 9.81186C27.6877 9.38352 27.8905 8.91572 28.0317 8.41144L27.8445 8.35901C27.708 8.84639 27.5142 9.29093 27.2123 9.69559L27.3681 9.81186ZM26.5101 9.85094H27.2902V9.6565H26.5101V9.85094ZM27.1837 8.35786C27.0425 8.83935 26.7919 9.28956 26.4374 9.6892L26.5828 9.81824C26.9555 9.3981 27.2206 8.92276 27.3703 8.41259L27.1837 8.35786ZM26.6026 8.48244H27.277V8.288H26.6026V8.48244ZM26.5859 7.85477L26.5066 8.37044L26.6987 8.40001L26.7781 7.88434L26.5859 7.85477ZM27.4092 7.77233H26.682V7.96678H27.4092V7.77233ZM27.4122 7.30658C27.3861 7.48275 27.3534 7.65935 27.314 7.84986L27.5044 7.88925C27.5443 7.69631 27.5778 7.51592 27.6045 7.33508L27.4122 7.30658ZM26.8935 7.41806H27.5084V7.22361H26.8935V7.41806ZM26.8768 6.79038L26.7974 7.30605L26.9896 7.33562L27.069 6.81995L26.8768 6.79038ZM30.047 6.70794H26.9729V6.90239H30.047V6.70794ZM30.0502 7.33801L30.1427 6.82234L29.9513 6.78799L29.8588 7.30366L30.0502 7.33801ZM29.4322 7.41806H29.9545V7.22361H29.4322V7.41806ZM29.4423 7.8846L29.5283 7.33588L29.3362 7.30579L29.2502 7.85451L29.4423 7.8846ZM30.0536 7.77233H29.3463V7.96678H30.0536V7.77233ZM30.0636 8.40121L30.1495 7.88554L29.9577 7.85357L29.8718 8.36924L30.0636 8.40121ZM28.6785 7.77233H28.0637V7.96678H28.6785V7.77233ZM28.6752 7.30466L28.5827 7.85338L28.7744 7.88573L28.867 7.337L28.6752 7.30466ZM28.1629 7.41806H28.7711V7.22361H28.1629V7.41806ZM28.1588 7.88993C28.1988 7.70307 28.2323 7.52232 28.2591 7.33458L28.0666 7.30708C28.0406 7.48956 28.0079 7.66582 27.9686 7.84918L28.1588 7.88993Z" fill="url(#paint8_linear_71186_141739)" style=""/>
</g>
<defs>
<filter id="filter0_f_71186_141739" x="-2.09574" y="5.36654" width="7.90743" height="7.93343" filterUnits="userSpaceOnUse" color-interpolation-filters="sRGB">
<feFlood flood-opacity="0" result="BackgroundImageFix"/>
<feBlend mode="normal" in="SourceGraphic" in2="BackgroundImageFix" result="shape"/>
<feGaussianBlur stdDeviation="0.583333" result="effect1_foregroundBlur_71186_141739"/>
</filter>
<filter id="filter1_f_71186_141739" x="13.1574" y="-2.17768" width="6.20058" height="6.22206" filterUnits="userSpaceOnUse" color-interpolation-filters="sRGB">
<feFlood flood-opacity="0" result="BackgroundImageFix"/>
<feBlend mode="normal" in="SourceGraphic" in2="BackgroundImageFix" result="shape"/>
<feGaussianBlur stdDeviation="0.388889" result="effect1_foregroundBlur_71186_141739"/>
</filter>
<linearGradient id="paint0_linear_71186_141739" x1="13.0066" y1="4.50468" x2="35.6548" y2="7.15267" gradientUnits="userSpaceOnUse">
<stop stop-color="#E4E6E8" style="stop-color:#E4E6E8;stop-color:color(display-p3 0.8941 0.9038 0.9087);stop-opacity:1;"/>
<stop offset="1" stop-color="#DBDDDF" style="stop-color:#DBDDDF;stop-color:color(display-p3 0.8586 0.8683 0.8757);stop-opacity:1;"/>
</linearGradient>
<linearGradient id="paint1_linear_71186_141739" x1="23.6777" y1="0.777832" x2="23.6777" y2="13.2223" gradientUnits="userSpaceOnUse">
<stop stop-color="white" style="stop-color:white;stop-opacity:1;"/>
<stop offset="1" stop-color="#B3B4B7" style="stop-color:#B3B4B7;stop-color:color(display-p3 0.7017 0.7059 0.7167);stop-opacity:1;"/>
</linearGradient>
<linearGradient id="paint2_linear_71186_141739" x1="-0.412923" y1="0.0162221" x2="-0.412923" y2="13.5335" gradientUnits="userSpaceOnUse">
<stop stop-color="#AAAAAA" style="stop-color:#AAAAAA;stop-color:color(display-p3 0.6667 0.6667 0.6667);stop-opacity:1;"/>
<stop offset="0.358179" stop-color="#CFD1D2" style="stop-color:#CFD1D2;stop-color:color(display-p3 0.8112 0.8201 0.8250);stop-opacity:1;"/>
<stop offset="1" stop-color="#C2C2C2" style="stop-color:#C2C2C2;stop-color:color(display-p3 0.7608 0.7608 0.7608);stop-opacity:1;"/>
</linearGradient>
<linearGradient id="paint3_linear_71186_141739" x1="8.2431" y1="-3.78088" x2="5.26627" y2="4.54243" gradientUnits="userSpaceOnUse">
<stop stop-color="#BDBDBD" style="stop-color:#BDBDBD;stop-color:color(display-p3 0.7417 0.7417 0.7417);stop-opacity:1;"/>
<stop offset="1" stop-color="#ECECEC" style="stop-color:#ECECEC;stop-color:color(display-p3 0.9250 0.9250 0.9250);stop-opacity:1;"/>
</linearGradient>
<linearGradient id="paint4_linear_71186_141739" x1="15.3287" y1="8.39984" x2="2.76244" y2="1.91416" gradientUnits="userSpaceOnUse">
<stop stop-color="#AEB0B1" style="stop-color:#AEB0B1;stop-color:color(display-p3 0.6824 0.6902 0.6941);stop-opacity:1;"/>
<stop offset="1" stop-color="#B6B8B8" style="stop-color:#B6B8B8;stop-color:color(display-p3 0.7137 0.7216 0.7216);stop-opacity:1;"/>
</linearGradient>
<linearGradient id="paint5_linear_71186_141739" x1="6.22426" y1="4.66657" x2="10.8929" y2="9.77834" gradientUnits="userSpaceOnUse">
<stop stop-color="#5A5A5A" style="stop-color:#5A5A5A;stop-color:color(display-p3 0.3529 0.3529 0.3529);stop-opacity:1;"/>
<stop offset="1" stop-color="#6F6F6F" style="stop-color:#6F6F6F;stop-color:color(display-p3 0.4333 0.4333 0.4333);stop-opacity:1;"/>
</linearGradient>
<linearGradient id="paint6_linear_71186_141739" x1="3.3399" y1="0.466506" x2="9.95573" y2="13.4136" gradientUnits="userSpaceOnUse">
<stop stop-color="#F5F5F5" style="stop-color:#F5F5F5;stop-color:color(display-p3 0.9608 0.9608 0.9608);stop-opacity:1;"/>
<stop offset="1" stop-color="#9FA0A2" style="stop-color:#9FA0A2;stop-color:color(display-p3 0.6254 0.6267 0.6333);stop-opacity:1;"/>
</linearGradient>
<linearGradient id="paint7_linear_71186_141739" x1="24.0614" y1="5.35911" x2="24.9005" y2="9.3028" gradientUnits="userSpaceOnUse">
<stop stop-color="#5A5A5A" style="stop-color:#5A5A5A;stop-color:color(display-p3 0.3529 0.3529 0.3529);stop-opacity:1;"/>
<stop offset="1" stop-color="#6F6F6F" style="stop-color:#6F6F6F;stop-color:color(display-p3 0.4333 0.4333 0.4333);stop-opacity:1;"/>
</linearGradient>
<linearGradient id="paint8_linear_71186_141739" x1="28.2692" y1="3.92285" x2="28.2692" y2="9.87306" gradientUnits="userSpaceOnUse">
<stop stop-color="#5C5C5C" style="stop-color:#5C5C5C;stop-color:color(display-p3 0.3608 0.3608 0.3608);stop-opacity:1;"/>
<stop offset="1" stop-color="#6F6F6F" style="stop-color:#6F6F6F;stop-color:color(display-p3 0.4353 0.4353 0.4353);stop-opacity:1;"/>
</linearGradient>
<clipPath id="clip0_71186_141739">
<rect width="42" height="14" fill="white" style="fill:white;fill-opacity:1;"/>
</clipPath>
</defs>
</svg>
