<svg xmlns="http://www.w3.org/2000/svg" width="36" height="36" fill="none" viewBox="0 0 36 36"><rect width="23.375" height="23.375" x="2.7" y="2.7" fill="#fff" rx="3"/><rect width="23.375" height="23.375" x="2.7" y="2.7" fill="url(#paint0_linear_3290_121164)" fill-opacity=".35" rx="3"/><path fill="#fff" fill-rule="evenodd" d="M14.202 6.43h-1.385a.46.46 0 0 0-.453.4c-.197 5.035-1.772 8.428-5.377 12.2-.102.106-.22.427-.009.672l.21.244q.28.325.687.805c.208.246.532.155.659.07 3.523-2.375 7.927-3.455 11.208-3.18a.47.47 0 0 0 .5-.391l.122-.6c.055-.277.1-.503.142-.689.075-.332-.193-.603-.34-.662-2.72-1.077-5.243-4.865-5.485-8.397-.01-.158-.09-.471-.48-.471m-2.54 10.341a19 19 0 0 0 2.104-4.56l.103-.346.148.276a14.3 14.3 0 0 0 2.575 3.405 23 23 0 0 0-4.548 1.09z" clip-rule="evenodd" opacity=".5"/><rect width="23.375" height="23.375" x="9.926" y="9.925" fill="#fff" rx="3"/><rect width="23.375" height="23.375" x="9.926" y="9.925" fill="url(#paint1_linear_3290_121164)" rx="3"/><g filter="url(#filter0_d_3290_121164)"><path fill="#fff" d="m15.975 27.382 4.878-6.775-.016 2.248-4.687-6.632h3.555l2.997 4.32-1.514.016 2.949-4.336h3.411l-4.687 6.504v-2.232l4.942 6.887H24.17l-3.045-4.543h1.45l-2.997 4.543z"/></g><path fill="#fff" fill-rule="evenodd" d="M6.26 30.74a2.027 2.027 0 0 1-1.938-2.025v-.275a.81.81 0 0 0-1.622 0v.275c0 1.985 1.585 3.6 3.559 3.648v.663c0 .217.216.348.379.23l2.21-1.618c.154-.112.148-.365-.01-.467l-2.212-1.435c-.163-.105-.367.027-.367.238z" clip-rule="evenodd"/><path fill="url(#paint2_linear_3290_121164)" fill-opacity=".35" fill-rule="evenodd" d="M6.26 30.74a2.027 2.027 0 0 1-1.938-2.025v-.275a.81.81 0 0 0-1.622 0v.275c0 1.985 1.585 3.6 3.559 3.648v.663c0 .217.216.348.379.23l2.21-1.618c.154-.112.148-.365-.01-.467l-2.212-1.435c-.163-.105-.367.027-.367.238z" clip-rule="evenodd"/><defs><linearGradient id="paint0_linear_3290_121164" x1="9.904" x2="-7.522" y1="-6.013" y2="16.591" gradientUnits="userSpaceOnUse"><stop stop-color="#00D689"/><stop offset="1" stop-color="#00AA5B"/></linearGradient><linearGradient id="paint1_linear_3290_121164" x1="17.129" x2="-.296" y1="1.212" y2="23.816" gradientUnits="userSpaceOnUse"><stop stop-color="#00D689"/><stop offset="1" stop-color="#00AA5B"/></linearGradient><linearGradient id="paint2_linear_3290_121164" x1="4.629" x2=".525" y1="35.414" y2="29.538" gradientUnits="userSpaceOnUse"><stop stop-color="#00D689"/><stop offset="1" stop-color="#00AA5B"/></linearGradient><filter id="filter0_d_3290_121164" width="16.11" height="15.44" x="15.261" y="14.796" color-interpolation-filters="sRGB" filterUnits="userSpaceOnUse"><feFlood flood-opacity="0" result="BackgroundImageFix"/><feColorMatrix in="SourceAlpha" result="hardAlpha" values="0 0 0 0 0 0 0 0 0 0 0 0 0 0 0 0 0 0 127 0"/><feOffset dx="1.427" dy=".713"/><feGaussianBlur stdDeviation="1.07"/><feColorMatrix values="0 0 0 0 0 0 0 0 0 0 0 0 0 0 0 0 0 0 0.08 0"/><feBlend in2="BackgroundImageFix" result="effect1_dropShadow_3290_121164"/><feBlend in="SourceGraphic" in2="effect1_dropShadow_3290_121164" result="shape"/></filter></defs></svg>